# Blender v2.80 (sub 75) OBJ File: ''
# www.blender.org
g Wooden_Log
v 0.015827 -0.500000 -0.254069
v 0.016356 0.500000 -0.250687
v 0.100558 -0.500000 -0.255108
v 0.100378 0.500000 -0.239697
v 0.205920 -0.500000 -0.203538
v 0.177710 0.500000 -0.196004
v 0.251885 -0.500000 -0.117501
v 0.231903 0.500000 -0.114898
v 0.261323 -0.500000 -0.036097
v 0.249292 0.500000 -0.034815
v 0.232988 -0.500000 0.057242
v 0.230262 0.500000 0.060856
v 0.193389 -0.500000 0.143901
v 0.199368 0.500000 0.150986
v 0.165428 -0.500000 0.179791
v 0.145498 0.500000 0.188280
v 0.072586 -0.500000 0.209716
v 0.049827 0.500000 0.207310
v -0.021215 -0.500000 0.217127
v -0.044203 0.500000 0.203867
v -0.108024 -0.500000 0.172638
v -0.125308 0.500000 0.149674
v -0.182884 -0.500000 0.098679
v -0.191151 0.500000 0.067583
v -0.212809 -0.500000 0.005837
v -0.210181 0.500000 -0.028088
v -0.187377 -0.500000 -0.113258
v -0.187377 0.500000 -0.113258
v -0.148776 -0.500000 -0.156512
v -0.160420 0.500000 -0.177464
v -0.076177 -0.500000 -0.221662
v -0.079315 0.500000 -0.231657
v 0.004888 -0.250000 -0.248082
v 0.006598 0.000000 -0.260449
v 0.013940 0.250000 -0.244440
v 0.100423 0.250000 -0.243549
v 0.098507 -0.000000 -0.247397
v 0.100513 -0.250000 -0.251255
v 0.184763 0.250000 -0.197888
v 0.187932 -0.000000 -0.200769
v 0.198868 -0.250000 -0.201655
v 0.236898 0.250000 -0.115549
v 0.236957 -0.000000 -0.118956
v 0.246889 -0.250000 -0.116851
v 0.252300 0.250000 -0.035135
v 0.246013 0.000000 -0.024427
v 0.258316 -0.250000 -0.035776
v 0.230944 0.250000 0.059953
v 0.222828 0.000000 0.068090
v 0.232306 -0.250000 0.058146
v 0.201839 0.250000 0.130329
v 0.188323 0.000000 0.154624
v 0.182707 -0.250000 0.157801
v 0.154446 0.250000 0.167272
v 0.148269 0.000000 0.190446
v 0.148268 -0.250000 0.194042
v 0.055517 0.250000 0.207911
v 0.055996 0.000000 0.214408
v 0.066896 -0.250000 0.209114
v -0.038456 0.250000 0.207182
v -0.035943 0.000000 0.216351
v -0.026962 -0.250000 0.213812
v -0.120987 0.250000 0.155415
v -0.118134 0.000000 0.168048
v -0.112345 -0.250000 0.166897
v -0.189084 0.250000 0.075357
v -0.187005 0.000000 0.091665
v -0.184951 -0.250000 0.090905
v -0.210838 0.250000 -0.019606
v -0.210967 0.000000 -0.000608
v -0.212152 -0.250000 -0.002644
v -0.193174 0.250000 -0.121158
v -0.185775 0.000000 -0.117999
v -0.187377 -0.250000 -0.113258
v -0.163306 0.250000 -0.180127
v -0.153685 0.000000 -0.170599
v -0.151687 -0.250000 -0.161750
v -0.080814 0.250000 -0.222066
v -0.078450 0.000000 -0.229014
v -0.076962 -0.250000 -0.224160
vt 1.000000 1.000000
vt 0.937500 0.875000
vt 1.000000 0.875000
vt 0.875000 1.000000
vt 0.875000 0.875000
vt 0.812500 1.000000
vt 0.812500 0.875000
vt 0.750000 1.000000
vt 0.750000 0.875000
vt 0.687500 0.875000
vt 0.687500 1.000000
vt 0.625000 0.875000
vt 0.625000 1.000000
vt 0.562500 0.875000
vt 0.562500 1.000000
vt 0.500000 0.875000
vt 0.500000 1.000000
vt 0.437500 0.875000
vt 0.437500 1.000000
vt 0.375000 0.875000
vt 0.375000 1.000000
vt 0.312500 0.875000
vt 0.312500 1.000000
vt 0.250000 0.875000
vt 0.250000 1.000000
vt 0.187500 0.875000
vt 0.125000 1.000000
vt 0.125000 0.875000
vt 0.471731 0.341844
vt 0.250000 0.490000
vt 0.471731 0.158156
vt 0.062500 0.875000
vt 0.062500 1.000000
vt 0.000000 0.875000
vt 0.580294 0.419706
vt 0.658156 0.471731
vt 0.971731 0.158156
vt 0.062500 0.500000
vt 0.000000 0.625000
vt 0.000000 0.500000
vt 0.062500 0.750000
vt 0.062500 0.625000
vt 0.000000 0.750000
vt 0.125000 0.625000
vt 0.125000 0.500000
vt 0.125000 0.750000
vt 0.187500 0.625000
vt 0.187500 0.500000
vt 0.187500 0.750000
vt 0.250000 0.625000
vt 0.250000 0.500000
vt 0.250000 0.750000
vt 0.312500 0.625000
vt 0.312500 0.500000
vt 0.312500 0.750000
vt 0.375000 0.625000
vt 0.375000 0.500000
vt 0.375000 0.750000
vt 0.437500 0.625000
vt 0.437500 0.500000
vt 0.437500 0.750000
vt 0.500000 0.625000
vt 0.500000 0.500000
vt 0.500000 0.750000
vt 0.562500 0.625000
vt 0.562500 0.500000
vt 0.562500 0.750000
vt 0.625000 0.625000
vt 0.625000 0.500000
vt 0.625000 0.750000
vt 0.687500 0.625000
vt 0.687500 0.500000
vt 0.687500 0.750000
vt 0.750000 0.625000
vt 0.750000 0.500000
vt 0.750000 0.750000
vt 0.812500 0.500000
vt 0.812500 0.750000
vt 0.812500 0.625000
vt 0.875000 0.500000
vt 0.875000 0.625000
vt 0.875000 0.750000
vt 0.937500 0.500000
vt 0.937500 0.625000
vt 0.937500 0.750000
vt 1.000000 0.500000
vt 1.000000 0.625000
vt 1.000000 0.750000
vt 0.937500 1.000000
vt 0.187500 1.000000
vt 0.419706 0.419706
vt 0.341844 0.471731
vt 0.158156 0.471731
vt 0.028269 0.341844
vt 0.080294 0.419706
vt 0.010000 0.250000
vt 0.028269 0.158156
vt 0.080294 0.080294
vt 0.158156 0.028269
vt 0.250000 0.010000
vt 0.341844 0.028269
vt 0.419706 0.080294
vt 0.490000 0.250000
vt 0.000000 1.000000
vt 0.750000 0.490000
vt 0.841844 0.471731
vt 0.971731 0.341844
vt 0.919706 0.419706
vt 0.990000 0.250000
vt 0.919706 0.080294
vt 0.750000 0.010000
vt 0.841844 0.028269
vt 0.658156 0.028269
vt 0.580294 0.080294
vt 0.528269 0.158156
vt 0.510000 0.250000
vt 0.528269 0.341844
vn -0.0447 -0.0079 -0.9990
vn 0.2571 0.0082 -0.9663
vn -0.1074 0.0006 -0.9942
vn 0.6768 0.0219 -0.7359
vn 0.6833 0.0171 -0.7300
vn 0.9211 0.0232 -0.3885
vn 0.9297 0.0107 -0.3682
vn 0.9999 0.0116 -0.0032
vn 0.9998 0.0011 0.0184
vn 0.9537 -0.0061 0.3006
vn 0.9639 -0.0060 0.2660
vn 0.8073 -0.0097 0.5901
vn 0.7909 -0.0363 0.6108
vn 0.5073 -0.0004 0.8618
vn 0.4054 -0.0296 0.9137
vn 0.1739 0.0135 0.9847
vn 0.0814 0.0085 0.9966
vn -0.2796 0.0194 0.9599
vn -0.3087 0.0101 0.9511
vn -0.6545 0.0185 0.7559
vn -0.6750 0.0099 0.7378
vn -0.8948 0.0139 0.4462
vn -0.9069 0.0101 0.4212
vn -0.9998 -0.0034 0.0193
vn -0.9995 0.0162 -0.0263
vn -0.9471 -0.0145 -0.3206
vn -0.7592 0.0062 -0.6509
vn -0.7076 -0.0191 -0.7064
vn 0.0000 1.0000 0.0000
vn -0.3622 -0.0108 -0.9320
vn -0.3841 -0.0276 -0.9229
vn 0.0000 -1.0000 -0.0000
vn -0.5016 -0.0082 -0.8651
vn -0.1579 -0.0025 -0.9875
vn -0.1722 0.0128 -0.9850
vn -0.4750 0.0046 -0.8799
vn -0.4689 -0.0178 -0.8831
vn -0.1071 0.0091 -0.9942
vn -0.7324 -0.0191 -0.6806
vn -0.7132 -0.0133 -0.7009
vn -0.7413 -0.0207 -0.6709
vn -0.9094 -0.0049 -0.4158
vn -0.8912 -0.0017 -0.4536
vn -0.9280 -0.0182 -0.3722
vn -0.9996 0.0049 0.0287
vn -0.9986 -0.0001 0.0528
vn -0.9996 -0.0017 0.0269
vn -0.8684 0.0020 0.4958
vn -0.8512 0.0045 0.5249
vn -0.8792 0.0052 0.4764
vn -0.6097 -0.0049 0.7926
vn -0.5869 0.0040 0.8096
vn -0.6310 0.0070 0.7758
vn -0.2236 -0.0050 0.9747
vn -0.1951 0.0041 0.9808
vn -0.2534 0.0070 0.9673
vn 0.1226 0.0023 0.9925
vn 0.1828 -0.0108 0.9831
vn 0.1371 0.0077 0.9905
vn 0.4755 0.0082 0.8797
vn 0.5816 -0.0159 0.8133
vn 0.4751 0.0210 0.8797
vn 0.8193 0.0099 0.5733
vn 0.8553 0.0020 0.5181
vn 0.8144 0.0051 0.5803
vn 0.9354 0.0157 0.3534
vn 0.9364 0.0050 0.3509
vn 0.9490 -0.0050 0.3151
vn 0.9974 0.0253 0.0673
vn 0.9959 0.0119 0.0892
vn 0.9968 0.0079 0.0800
vn 0.9537 0.0166 -0.3004
vn 0.9468 0.0204 -0.3211
vn 0.9472 0.0292 -0.3193
vn 0.6943 0.0211 -0.7194
vn 0.6889 0.0258 -0.7244
vn 0.6839 0.0224 -0.7292
vn 0.2207 0.0170 -0.9752
vn 0.2177 0.0185 -0.9758
vn 0.2888 0.0109 -0.9573
vn 0.3171 0.0147 -0.9483
vn -0.9460 0.0321 -0.3225
s 1
f 2/1/1 36/2/2 35/3/3
f 36/2/2 6/4/4 39/5/5
f 39/5/5 8/6/6 42/7/7
f 42/7/7 10/8/8 45/9/9
f 10/8/8 48/10/10 45/9/9
f 12/11/11 51/12/12 48/10/10
f 14/13/13 54/14/14 51/12/12
f 16/15/15 57/16/16 54/14/14
f 18/17/17 60/18/18 57/16/16
f 20/19/19 63/20/20 60/18/18
f 22/21/21 66/22/22 63/20/20
f 24/23/23 69/24/24 66/22/22
f 26/25/25 72/26/26 69/24/24
f 72/26/26 30/27/27 75/28/28
f 8/29/29 2/30/29 12/31/29
f 30/27/27 78/32/30 75/28/28
f 32/33/31 35/34/3 78/32/30
f 29/35/32 31/36/32 11/37/32
f 31/38/33 33/39/34 1/40/35
f 79/41/36 33/39/34 80/42/37
f 79/41/36 35/34/3 34/43/38
f 77/44/39 31/38/33 29/45/40
f 76/46/41 80/42/37 77/44/39
f 76/46/41 78/32/30 79/41/36
f 74/47/42 29/45/40 27/48/43
f 73/49/44 77/44/39 74/47/42
f 72/26/26 76/46/41 73/49/44
f 71/50/45 27/48/43 25/51/46
f 70/52/47 74/47/42 71/50/45
f 69/24/24 73/49/44 70/52/47
f 68/53/48 25/51/46 23/54/49
f 68/53/48 70/52/47 71/50/45
f 66/22/22 70/52/47 67/55/50
f 65/56/51 23/54/49 21/57/52
f 64/58/53 68/53/48 65/56/51
f 63/20/20 67/55/50 64/58/53
f 62/59/54 21/57/52 19/60/55
f 61/61/56 65/56/51 62/59/54
f 60/18/18 64/58/53 61/61/56
f 59/62/57 19/60/55 17/63/58
f 58/64/59 62/59/54 59/62/57
f 57/16/16 61/61/56 58/64/59
f 56/65/60 17/63/58 15/66/61
f 55/67/62 59/62/57 56/65/60
f 55/67/62 57/16/16 58/64/59
f 53/68/63 15/66/61 13/69/64
f 53/68/63 55/67/62 56/65/60
f 52/70/65 54/14/14 55/67/62
f 50/71/66 13/69/64 11/72/67
f 49/73/68 53/68/63 50/71/66
f 49/73/68 51/12/12 52/70/65
f 47/74/69 11/72/67 9/75/70
f 46/76/71 50/71/66 47/74/69
f 46/76/71 48/10/10 49/73/68
f 7/77/72 47/74/69 9/75/70
f 43/78/73 47/74/69 44/79/74
f 43/78/73 45/9/9 46/76/71
f 5/80/75 44/79/74 7/77/72
f 41/81/76 43/78/73 44/79/74
f 39/5/5 43/78/73 40/82/77
f 3/83/78 41/81/76 5/80/75
f 38/84/79 40/82/77 41/81/76
f 36/2/2 40/82/77 37/85/80
f 1/86/35 38/84/79 3/83/78
f 33/87/34 37/85/80 38/84/79
f 35/3/3 37/85/80 34/88/38
f 2/1/1 4/89/81 36/2/2
f 36/2/2 4/89/81 6/4/4
f 39/5/5 6/4/4 8/6/6
f 42/7/7 8/6/6 10/8/8
f 10/8/8 12/11/11 48/10/10
f 12/11/11 14/13/13 51/12/12
f 14/13/13 16/15/15 54/14/14
f 16/15/15 18/17/17 57/16/16
f 18/17/17 20/19/19 60/18/18
f 20/19/19 22/21/21 63/20/20
f 22/21/21 24/23/23 66/22/22
f 24/23/23 26/25/25 69/24/24
f 26/25/25 28/90/82 72/26/26
f 72/26/26 28/90/82 30/27/27
f 6/91/29 4/92/29 8/29/29
f 4/92/29 2/30/29 8/29/29
f 2/30/29 32/93/29 28/94/29
f 32/93/29 30/95/29 28/94/29
f 28/94/29 26/96/29 24/97/29
f 22/98/29 28/94/29 24/97/29
f 22/98/29 20/99/29 18/100/29
f 18/100/29 16/101/29 12/31/29
f 16/101/29 14/102/29 12/31/29
f 12/31/29 10/103/29 8/29/29
f 22/98/29 12/31/29 28/94/29
f 2/30/29 28/94/29 12/31/29
f 22/98/29 18/100/29 12/31/29
f 30/27/27 32/33/31 78/32/30
f 32/33/31 2/104/1 35/34/3
f 31/36/32 1/105/32 11/37/32
f 1/105/32 3/106/32 7/107/32
f 3/106/32 5/108/32 7/107/32
f 7/107/32 9/109/32 1/105/32
f 9/109/32 11/37/32 1/105/32
f 11/37/32 13/110/32 17/111/32
f 13/110/32 15/112/32 17/111/32
f 17/111/32 19/113/32 21/114/32
f 11/37/32 17/111/32 21/114/32
f 21/114/32 23/115/32 29/35/32
f 11/37/32 21/114/32 29/35/32
f 23/115/32 25/116/32 29/35/32
f 25/116/32 27/117/32 29/35/32
f 31/38/33 80/42/37 33/39/34
f 79/41/36 34/43/38 33/39/34
f 79/41/36 78/32/30 35/34/3
f 77/44/39 80/42/37 31/38/33
f 76/46/41 79/41/36 80/42/37
f 76/46/41 75/28/28 78/32/30
f 74/47/42 77/44/39 29/45/40
f 73/49/44 76/46/41 77/44/39
f 72/26/26 75/28/28 76/46/41
f 71/50/45 74/47/42 27/48/43
f 70/52/47 73/49/44 74/47/42
f 69/24/24 72/26/26 73/49/44
f 68/53/48 71/50/45 25/51/46
f 68/53/48 67/55/50 70/52/47
f 66/22/22 69/24/24 70/52/47
f 65/56/51 68/53/48 23/54/49
f 64/58/53 67/55/50 68/53/48
f 63/20/20 66/22/22 67/55/50
f 62/59/54 65/56/51 21/57/52
f 61/61/56 64/58/53 65/56/51
f 60/18/18 63/20/20 64/58/53
f 59/62/57 62/59/54 19/60/55
f 58/64/59 61/61/56 62/59/54
f 57/16/16 60/18/18 61/61/56
f 56/65/60 59/62/57 17/63/58
f 55/67/62 58/64/59 59/62/57
f 55/67/62 54/14/14 57/16/16
f 53/68/63 56/65/60 15/66/61
f 53/68/63 52/70/65 55/67/62
f 52/70/65 51/12/12 54/14/14
f 50/71/66 53/68/63 13/69/64
f 49/73/68 52/70/65 53/68/63
f 49/73/68 48/10/10 51/12/12
f 47/74/69 50/71/66 11/72/67
f 46/76/71 49/73/68 50/71/66
f 46/76/71 45/9/9 48/10/10
f 7/77/72 44/79/74 47/74/69
f 43/78/73 46/76/71 47/74/69
f 43/78/73 42/7/7 45/9/9
f 5/80/75 41/81/76 44/79/74
f 41/81/76 40/82/77 43/78/73
f 39/5/5 42/7/7 43/78/73
f 3/83/78 38/84/79 41/81/76
f 38/84/79 37/85/80 40/82/77
f 36/2/2 39/5/5 40/82/77
f 1/86/35 33/87/34 38/84/79
f 33/87/34 34/88/38 37/85/80
f 35/3/3 36/2/2 37/85/80
