# Blender v2.80 (sub 75) OBJ File: ''
# www.blender.org
g ladder_10m_free
v -0.450000 0.000000 0.000000
v -0.406699 -10.100000 0.024998
v -0.450000 -10.100000 -0.000002
v -0.406699 -0.000000 0.025000
v -0.406699 -10.100000 0.074998
v -0.406699 -0.000000 0.075000
v -0.450000 -10.100000 0.099998
v -0.450000 -0.000000 0.100000
v -0.493301 -10.100000 0.074998
v -0.493301 -0.000000 0.075000
v -0.493301 -10.100000 0.024998
v -0.493301 -0.000000 0.025000
v -0.438482 -3.512736 0.015927
v 0.438482 -3.558494 0.015927
v -0.438482 -3.558494 0.015927
v -0.438482 -4.512735 0.015927
v 0.438482 -4.558494 0.015927
v -0.438482 -4.558494 0.015927
v -0.438482 -4.012735 0.015927
v 0.438482 -4.058494 0.015927
v -0.438482 -4.058494 0.015927
v 0.438482 -3.058494 0.015928
v -0.438482 -3.058494 0.084072
v -0.438482 -3.058494 0.015928
v 0.438482 -4.512735 0.084071
v -0.438482 -4.558494 0.084071
v 0.438482 -4.558494 0.084071
v -0.438482 -3.558494 0.084071
v -0.438482 -4.058494 0.084071
v 0.438482 -2.512736 0.084072
v -0.438482 -2.558494 0.084072
v 0.438482 -2.558494 0.084072
v 0.438482 -4.012735 0.084071
v 0.438482 -4.012735 0.015927
v 0.438482 -3.512736 0.084071
v 0.438482 -3.558494 0.084071
v 0.438482 -4.058494 0.084071
v -0.438482 -3.012736 0.015928
v 0.438482 -3.012736 0.084072
v 0.438482 -3.012736 0.015928
v 0.438482 -3.512736 0.015927
v -0.438482 -2.512736 0.015928
v 0.438482 -2.512736 0.015928
v 0.438482 -2.558494 0.015928
v -0.438482 -2.558494 0.015928
v 0.438482 -3.058494 0.084072
v -0.438482 -0.012736 0.015928
v 0.438482 -0.058494 0.015928
v -0.438482 -0.058494 0.015928
v 0.438482 -0.012736 0.084072
v -0.438482 -0.058494 0.084072
v 0.438482 -0.058494 0.084072
v 0.438482 -0.012736 0.015928
v -0.438482 -0.512736 0.015928
v 0.438482 -0.558494 0.015928
v -0.438482 -0.558494 0.015928
v 0.438482 -0.512736 0.084072
v -0.438482 -0.558494 0.084072
v 0.438482 -0.558494 0.084072
v 0.438482 -0.512736 0.015928
v -0.438482 -1.012736 0.015928
v 0.438482 -1.058494 0.015928
v -0.438482 -1.058494 0.015928
v 0.438482 -1.012736 0.084072
v -0.438482 -1.058494 0.084072
v 0.438482 -1.058494 0.084072
v 0.438482 -1.012736 0.015928
v -0.438482 -1.512736 0.015928
v 0.438482 -1.558494 0.015928
v -0.438482 -1.558494 0.015928
v 0.438482 -1.512736 0.084072
v -0.438482 -1.558494 0.084072
v 0.438482 -1.558494 0.084072
v 0.438482 -1.512736 0.015928
v -0.438482 -2.012736 0.015928
v 0.438482 -2.058494 0.015928
v -0.438482 -2.058494 0.015928
v 0.438482 -2.012736 0.084072
v -0.438482 -2.058494 0.084072
v 0.438482 -2.058494 0.084072
v 0.438482 -2.012736 0.015928
v -0.450000 -10.130001 0.049998
v 0.438482 -4.512735 0.015927
v -0.450000 0.200000 0.000000
v -0.493301 0.200000 0.025000
v -0.450000 0.230000 0.050000
v -0.493301 0.200000 0.075000
v -0.450000 0.200000 0.100000
v -0.406699 0.200000 0.075000
v -0.406699 0.200000 0.025000
v -0.438482 -8.512735 0.015927
v 0.438482 -8.558494 0.015927
v -0.438482 -8.558494 0.015927
v -0.438482 -9.512735 0.015926
v 0.438482 -9.558494 0.015926
v -0.438482 -9.558494 0.015926
v -0.438482 -9.012735 0.015927
v 0.438482 -9.058494 0.015927
v -0.438482 -9.058494 0.015927
v 0.438482 -8.058494 0.015927
v -0.438482 -8.058494 0.084071
v -0.438482 -8.058494 0.015927
v 0.438482 -9.512735 0.084070
v -0.438482 -9.558494 0.084070
v 0.438482 -9.558494 0.084070
v -0.438482 -8.558494 0.084071
v -0.438482 -9.058494 0.084071
v 0.438482 -7.512735 0.084071
v -0.438482 -7.558494 0.084071
v 0.438482 -7.558494 0.084071
v 0.438482 -9.012735 0.084071
v 0.438482 -9.012735 0.015927
v 0.438482 -8.512735 0.084071
v 0.438482 -8.558494 0.084071
v 0.438482 -9.058494 0.084071
v -0.438482 -8.012735 0.015927
v 0.438482 -8.012735 0.084071
v 0.438482 -8.012735 0.015927
v 0.438482 -8.512735 0.015927
v -0.438482 -7.512735 0.015927
v 0.438482 -7.512735 0.015927
v 0.438482 -7.558494 0.015927
v -0.438482 -7.558494 0.015927
v 0.438482 -8.058494 0.084071
v -0.438482 -5.012736 0.015927
v 0.438482 -5.058494 0.015927
v -0.438482 -5.058494 0.015927
v 0.438482 -5.012736 0.084071
v -0.438482 -5.058494 0.084071
v 0.438482 -5.058494 0.084071
v 0.438482 -5.012736 0.015927
v -0.438482 -5.512736 0.015927
v 0.438482 -5.558494 0.015927
v -0.438482 -5.558494 0.015927
v 0.438482 -5.512736 0.084071
v -0.438482 -5.558494 0.084071
v 0.438482 -5.558494 0.084071
v 0.438482 -5.512736 0.015927
v -0.438482 -6.012735 0.015927
v 0.438482 -6.058494 0.015927
v -0.438482 -6.058494 0.015927
v 0.438482 -6.012735 0.084071
v -0.438482 -6.058494 0.084071
v 0.438482 -6.058494 0.084071
v 0.438482 -6.012735 0.015927
v -0.438482 -6.512735 0.015927
v 0.438482 -6.558494 0.015927
v -0.438482 -6.558494 0.015927
v 0.438482 -6.512735 0.084071
v -0.438482 -6.558494 0.084071
v 0.438482 -6.558494 0.084071
v 0.438482 -6.512735 0.015927
v -0.438482 -7.012735 0.015927
v 0.438482 -7.058494 0.015927
v -0.438482 -7.058494 0.015927
v 0.438482 -7.012735 0.084071
v -0.438482 -7.058494 0.084071
v 0.438482 -7.058494 0.084071
v 0.438482 -7.012735 0.015927
v 0.438482 -9.512735 0.015926
v 0.450000 0.000000 0.000000
v 0.493301 -10.100000 0.024998
v 0.450000 -10.100000 -0.000002
v 0.493301 -0.000000 0.025000
v 0.493301 -10.100000 0.074998
v 0.493301 -0.000000 0.075000
v 0.450000 -10.100000 0.099998
v 0.450000 -0.000000 0.100000
v 0.406699 -10.100000 0.074998
v 0.406699 -0.000000 0.075000
v 0.406699 -10.100000 0.024998
v 0.406699 -0.000000 0.025000
v 0.450000 -10.130001 0.049998
v 0.450000 0.200000 0.000000
v 0.406699 0.200000 0.025000
v 0.450000 0.230000 0.050000
v 0.406699 0.200000 0.075000
v 0.450000 0.200000 0.100000
v 0.493301 0.200000 0.075000
v 0.493301 0.200000 0.025000
v -0.438482 -4.512735 0.084071
v -0.438482 -2.512736 0.084072
v -0.438482 -4.012735 0.084071
v -0.438482 -3.512736 0.084071
v -0.438482 -3.012736 0.084072
v -0.438482 -0.012736 0.084072
v -0.438482 -0.512736 0.084072
v -0.438482 -1.012736 0.084072
v -0.438482 -1.512736 0.084072
v -0.438482 -2.012736 0.084072
v -0.438482 -9.512735 0.084070
v -0.438482 -7.512735 0.084071
v -0.438482 -9.012735 0.084071
v -0.438482 -8.512735 0.084071
v -0.438482 -8.012735 0.084071
v -0.438482 -5.012736 0.084071
v -0.438482 -5.512736 0.084071
v -0.438482 -6.012735 0.084071
v -0.438482 -6.512735 0.084071
v -0.438482 -7.012735 0.084071
vt -0.801839 0.268578
vt 5.379519 0.226101
vt 5.379519 0.268578
vt -0.801839 0.226102
vt 5.379519 0.183669
vt -0.801839 0.183669
vt 5.379519 0.141238
vt -0.801839 0.141238
vt 5.379519 0.098807
vt -0.801839 0.098808
vt 5.379519 0.056377
vt -0.801839 0.056378
vt 5.379519 0.013947
vt 0.289261 0.354825
vt 0.977970 0.390761
vt 0.289261 0.390761
vt 0.290005 0.752469
vt 0.978715 0.788405
vt 0.290005 0.788405
vt 0.290005 0.946392
vt 0.978715 0.982328
vt 0.290005 0.982328
vt 0.981571 0.014966
vt 0.292862 0.068483
vt 0.292862 0.014966
vt 0.978715 0.698953
vt 0.290005 0.663018
vt 0.978715 0.663017
vt 0.977970 0.211857
vt 0.289261 0.265374
vt 0.289261 0.211857
vt 0.978714 0.803424
vt 0.290005 0.856941
vt 0.290005 0.803424
vt 0.979574 0.499315
vt 0.290865 0.463380
vt 0.979574 0.463380
vt 0.978715 0.892876
vt 0.978715 0.946393
vt 0.977970 0.301309
vt 0.977970 0.265374
vt 0.978715 0.856941
vt 0.292862 0.157934
vt 0.981571 0.104417
vt 0.981571 0.157934
vt 0.977970 0.354826
vt 0.290865 0.552831
vt 0.979574 0.552832
vt 0.979574 0.588767
vt 0.290865 0.588767
vt 0.979574 0.409863
vt 0.290865 0.409863
vt 0.981571 0.068482
vt 0.981571 0.193869
vt 0.292862 0.193869
vt 0.290865 0.552831
vt 0.979574 0.588767
vt 0.290865 0.588767
vt 0.979574 0.499315
vt 0.290865 0.463380
vt 0.979574 0.463380
vt 0.979574 0.409863
vt 0.290865 0.409863
vt 0.979574 0.552832
vt 0.292862 0.157934
vt 0.981571 0.193869
vt 0.292862 0.193869
vt 0.981571 0.104417
vt 0.292862 0.068483
vt 0.981571 0.068482
vt 0.981571 0.014966
vt 0.292862 0.014966
vt 0.981571 0.157934
vt 0.289261 0.354825
vt 0.977970 0.390761
vt 0.289261 0.390761
vt 0.977970 0.301309
vt 0.289261 0.265374
vt 0.977970 0.265374
vt 0.977970 0.211857
vt 0.289261 0.211857
vt 0.977970 0.354826
vt 0.290005 0.946392
vt 0.978715 0.982328
vt 0.290005 0.982328
vt 0.978715 0.892876
vt 0.290005 0.856941
vt 0.978715 0.856941
vt 0.978714 0.803424
vt 0.290005 0.803424
vt 0.978715 0.946393
vt 0.290005 0.752469
vt 0.978715 0.788405
vt 0.290005 0.788405
vt 0.978715 0.698953
vt 0.290005 0.663018
vt 0.978715 0.663017
vt 0.978715 0.609502
vt 0.290005 0.609501
vt 0.978715 0.752470
vt 5.442716 0.120282
vt 5.442716 0.035504
vt 5.442716 0.205060
vt 0.978715 0.752470
vt 5.442716 0.077893
vt 5.442716 0.247490
vt 5.442716 0.162671
vt 0.978715 0.609502
vt 0.290005 0.609501
vt -0.917520 0.013947
vt -0.917520 0.056378
vt -0.981349 0.035926
vt -0.917520 0.098808
vt -0.917520 0.141238
vt -0.981349 0.120716
vt -0.917520 0.183669
vt -0.917520 0.226102
vt -0.981349 0.205520
vt -0.981349 0.078319
vt -0.981349 0.163117
vt -0.917520 0.268578
vt -0.981349 0.247966
vt -0.801839 0.013947
vt 0.289261 0.354825
vt 0.977970 0.390761
vt 0.289261 0.390761
vt 0.290005 0.752469
vt 0.978715 0.788405
vt 0.290005 0.788405
vt 0.290005 0.946392
vt 0.978715 0.982328
vt 0.290005 0.982328
vt 0.981571 0.014966
vt 0.292862 0.068483
vt 0.292862 0.014966
vt 0.978715 0.698953
vt 0.290005 0.663018
vt 0.978715 0.663017
vt 0.977970 0.211857
vt 0.289261 0.265374
vt 0.289261 0.211857
vt 0.978714 0.803424
vt 0.290005 0.856941
vt 0.290005 0.803424
vt 0.979574 0.499315
vt 0.290865 0.463380
vt 0.979574 0.463380
vt 0.978715 0.892876
vt 0.978715 0.946393
vt 0.977970 0.301309
vt 0.977970 0.265374
vt 0.978715 0.856941
vt 0.292862 0.157934
vt 0.981571 0.104417
vt 0.981571 0.157934
vt 0.977970 0.354826
vt 0.290865 0.552831
vt 0.979574 0.552832
vt 0.979574 0.588767
vt 0.290865 0.588767
vt 0.979574 0.409863
vt 0.290865 0.409863
vt 0.981571 0.068482
vt 0.981571 0.193869
vt 0.292862 0.193869
vt 0.290865 0.552831
vt 0.979574 0.588767
vt 0.290865 0.588767
vt 0.979574 0.499315
vt 0.290865 0.463380
vt 0.979574 0.463380
vt 0.979574 0.409863
vt 0.290865 0.409863
vt 0.979574 0.552832
vt 0.292862 0.157934
vt 0.981571 0.193869
vt 0.292862 0.193869
vt 0.981571 0.104417
vt 0.292862 0.068483
vt 0.981571 0.068482
vt 0.981571 0.014966
vt 0.292862 0.014966
vt 0.981571 0.157934
vt 0.289261 0.354825
vt 0.977970 0.390761
vt 0.289261 0.390761
vt 0.977970 0.301309
vt 0.289261 0.265374
vt 0.977970 0.265374
vt 0.977970 0.211857
vt 0.289261 0.211857
vt 0.977970 0.354826
vt 0.290005 0.946392
vt 0.978715 0.982328
vt 0.290005 0.982328
vt 0.978715 0.892876
vt 0.290005 0.856941
vt 0.978715 0.856941
vt 0.978714 0.803424
vt 0.290005 0.803424
vt 0.978715 0.946393
vt 0.290005 0.752469
vt 0.978715 0.788405
vt 0.290005 0.788405
vt 0.978715 0.698953
vt 0.290005 0.663018
vt 0.978715 0.663017
vt 0.978715 0.609502
vt 0.290005 0.609501
vt 0.978715 0.752470
vt 0.978715 0.752470
vt 0.978715 0.609502
vt 0.290005 0.609501
vt -0.801839 0.268578
vt 5.379519 0.226101
vt 5.379519 0.268578
vt -0.801839 0.226102
vt 5.379519 0.183669
vt -0.801839 0.183669
vt 5.379519 0.141238
vt -0.801839 0.141238
vt 5.379519 0.098807
vt -0.801839 0.098808
vt 5.379519 0.056377
vt -0.801839 0.056378
vt 5.379519 0.013947
vt 5.442716 0.120282
vt 5.442716 0.035504
vt 5.442716 0.205060
vt 5.442716 0.077893
vt 5.442716 0.247490
vt 5.442716 0.162671
vt -0.917520 0.013947
vt -0.917520 0.056378
vt -0.981349 0.035926
vt -0.917520 0.098808
vt -0.917520 0.141238
vt -0.981349 0.120716
vt -0.917520 0.183669
vt -0.917520 0.226102
vt -0.981349 0.205520
vt -0.981349 0.078319
vt -0.981349 0.163117
vt -0.917520 0.268578
vt -0.981349 0.247966
vt -0.801839 0.013947
vt 0.290005 0.698953
vt 0.290865 0.499315
vt 0.290005 0.892876
vt 0.289261 0.301309
vt 0.292862 0.104417
vt 0.290865 0.499315
vt 0.292862 0.104417
vt 0.289261 0.301309
vt 0.290005 0.892876
vt 0.290005 0.698953
vt 0.290005 0.698953
vt 0.290865 0.499315
vt 0.290005 0.892876
vt 0.289261 0.301309
vt 0.292862 0.104417
vt 0.290865 0.499315
vt 0.292862 0.104417
vt 0.289261 0.301309
vt 0.290005 0.892876
vt 0.290005 0.698953
vn 0.0000 0.0000 -1.0000
vn 0.7796 -0.4354 -0.4501
vn -0.0000 -0.4354 -0.9002
vn 0.8660 0.0000 -0.5000
vn 0.7796 -0.4354 0.4501
vn 0.8660 -0.0000 0.5000
vn 0.0000 -0.4354 0.9002
vn -0.0000 -0.0000 1.0000
vn -0.7796 -0.4354 0.4501
vn -0.8660 -0.0000 0.5000
vn -0.7796 -0.4354 -0.4501
vn -0.8660 0.0000 -0.5000
vn 0.0000 0.7071 -0.7071
vn 0.0000 -0.7071 -0.7071
vn 0.0000 -0.7071 0.7071
vn 0.0000 0.7071 0.7071
vn 0.0000 -1.0000 -0.0000
vn 0.0000 0.4354 -0.9002
vn -0.7796 0.4354 -0.4501
vn 0.0000 1.0000 0.0000
vn -0.7796 0.4354 0.4501
vn 0.0000 0.4354 0.9002
vn 0.7796 0.4354 0.4501
vn 0.7796 0.4354 -0.4501
s 1
f 1/1/1 2/2/2 3/3/3
f 4/4/4 5/5/5 2/2/2
f 6/6/6 7/7/7 5/5/5
f 8/8/8 9/9/9 7/7/7
f 10/10/10 11/11/11 9/9/9
f 12/12/12 3/13/3 11/11/11
f 13/14/13 14/15/14 15/16/14
f 16/17/13 17/18/14 18/19/14
f 19/20/13 20/21/14 21/22/14
f 22/23/14 23/24/15 24/25/14
f 25/26/16 26/27/15 27/28/15
f 14/29/14 28/30/15 15/31/14
f 20/32/14 29/33/15 21/34/14
f 30/35/16 31/36/15 32/37/15
f 19/20/13 33/38/16 34/39/13
f 35/40/16 28/30/15 36/41/15
f 33/38/16 29/33/15 37/42/15
f 38/43/13 39/44/16 40/45/13
f 13/14/13 35/40/16 41/46/13
f 42/47/13 30/35/16 43/48/13
f 42/47/13 44/49/14 45/50/14
f 44/51/14 31/36/15 45/52/14
f 39/44/16 23/24/15 46/53/15
f 38/43/13 22/54/14 24/55/14
f 47/56/13 48/57/14 49/58/14
f 50/59/16 51/60/15 52/61/15
f 48/62/14 51/60/15 49/63/14
f 47/56/13 50/59/16 53/64/13
f 54/65/13 55/66/14 56/67/14
f 57/68/16 58/69/15 59/70/15
f 55/71/14 58/69/15 56/72/14
f 54/65/13 57/68/16 60/73/13
f 61/74/13 62/75/14 63/76/14
f 64/77/16 65/78/15 66/79/15
f 62/80/14 65/78/15 63/81/14
f 61/74/13 64/77/16 67/82/13
f 68/83/13 69/84/14 70/85/14
f 71/86/16 72/87/15 73/88/15
f 69/89/14 72/87/15 70/90/14
f 68/83/13 71/86/16 74/91/13
f 75/92/13 76/93/14 77/94/14
f 78/95/16 79/96/15 80/97/15
f 76/98/14 79/96/15 77/99/14
f 75/92/13 78/95/16 81/100/13
f 7/7/7 9/9/9 82/101/17
f 11/11/11 3/13/3 82/102/17
f 2/2/2 5/5/5 82/103/17
f 16/17/13 25/26/16 83/104/13
f 9/9/9 11/11/11 82/105/17
f 3/3/3 2/2/2 82/106/17
f 5/5/5 7/7/7 82/107/17
f 17/108/14 26/27/15 18/109/14
f 84/110/18 85/111/19 86/112/20
f 87/113/21 88/114/22 86/115/20
f 89/116/23 90/117/24 86/118/20
f 85/111/19 87/113/21 86/119/20
f 88/114/22 89/116/23 86/120/20
f 90/117/24 84/121/18 86/122/20
f 12/12/12 84/110/18 1/123/1
f 6/6/6 88/114/22 8/8/8
f 1/1/1 90/117/24 4/4/4
f 10/10/10 85/111/19 12/12/12
f 4/4/4 89/116/23 6/6/6
f 8/8/8 87/113/21 10/10/10
f 91/124/13 92/125/14 93/126/14
f 94/127/13 95/128/14 96/129/14
f 97/130/13 98/131/14 99/132/14
f 100/133/14 101/134/15 102/135/14
f 103/136/16 104/137/15 105/138/15
f 92/139/14 106/140/15 93/141/14
f 98/142/14 107/143/15 99/144/14
f 108/145/16 109/146/15 110/147/15
f 97/130/13 111/148/16 112/149/13
f 113/150/16 106/140/15 114/151/15
f 111/148/16 107/143/15 115/152/15
f 116/153/13 117/154/16 118/155/13
f 91/124/13 113/150/16 119/156/13
f 120/157/13 108/145/16 121/158/13
f 120/157/13 122/159/14 123/160/14
f 122/161/14 109/146/15 123/162/14
f 117/154/16 101/134/15 124/163/15
f 116/153/13 100/164/14 102/165/14
f 125/166/13 126/167/14 127/168/14
f 128/169/16 129/170/15 130/171/15
f 126/172/14 129/170/15 127/173/14
f 125/166/13 128/169/16 131/174/13
f 132/175/13 133/176/14 134/177/14
f 135/178/16 136/179/15 137/180/15
f 133/181/14 136/179/15 134/182/14
f 132/175/13 135/178/16 138/183/13
f 139/184/13 140/185/14 141/186/14
f 142/187/16 143/188/15 144/189/15
f 140/190/14 143/188/15 141/191/14
f 139/184/13 142/187/16 145/192/13
f 146/193/13 147/194/14 148/195/14
f 149/196/16 150/197/15 151/198/15
f 147/199/14 150/197/15 148/200/14
f 146/193/13 149/196/16 152/201/13
f 153/202/13 154/203/14 155/204/14
f 156/205/16 157/206/15 158/207/15
f 154/208/14 157/206/15 155/209/14
f 153/202/13 156/205/16 159/210/13
f 94/127/13 103/136/16 160/211/13
f 95/212/14 104/137/15 96/213/14
f 161/214/1 162/215/2 163/216/3
f 164/217/4 165/218/5 162/215/2
f 166/219/6 167/220/7 165/218/5
f 168/221/8 169/222/9 167/220/7
f 170/223/10 171/224/11 169/222/9
f 172/225/12 163/226/3 171/224/11
f 167/220/7 169/222/9 173/227/17
f 171/224/11 163/226/3 173/228/17
f 162/215/2 165/218/5 173/229/17
f 169/222/9 171/224/11 173/230/17
f 163/216/3 162/215/2 173/231/17
f 165/218/5 167/220/7 173/232/17
f 174/233/18 175/234/19 176/235/20
f 177/236/21 178/237/22 176/238/20
f 179/239/23 180/240/24 176/241/20
f 175/234/19 177/236/21 176/242/20
f 178/237/22 179/239/23 176/243/20
f 180/240/24 174/244/18 176/245/20
f 172/225/12 174/233/18 161/246/1
f 166/219/6 178/237/22 168/221/8
f 161/214/1 180/240/24 164/217/4
f 170/223/10 175/234/19 172/225/12
f 164/217/4 179/239/23 166/219/6
f 168/221/8 177/236/21 170/223/10
f 1/1/1 4/4/4 2/2/2
f 4/4/4 6/6/6 5/5/5
f 6/6/6 8/8/8 7/7/7
f 8/8/8 10/10/10 9/9/9
f 10/10/10 12/12/12 11/11/11
f 12/12/12 1/123/1 3/13/3
f 13/14/13 41/46/13 14/15/14
f 16/17/13 83/104/13 17/18/14
f 19/20/13 34/39/13 20/21/14
f 22/23/14 46/53/15 23/24/15
f 25/26/16 181/247/16 26/27/15
f 14/29/14 36/41/15 28/30/15
f 20/32/14 37/42/15 29/33/15
f 30/35/16 182/248/16 31/36/15
f 19/20/13 183/249/16 33/38/16
f 35/40/16 184/250/16 28/30/15
f 33/38/16 183/249/16 29/33/15
f 38/43/13 185/251/16 39/44/16
f 13/14/13 184/250/16 35/40/16
f 42/47/13 182/248/16 30/35/16
f 42/47/13 43/48/13 44/49/14
f 44/51/14 32/37/15 31/36/15
f 39/44/16 185/251/16 23/24/15
f 38/43/13 40/45/13 22/54/14
f 47/56/13 53/64/13 48/57/14
f 50/59/16 186/252/16 51/60/15
f 48/62/14 52/61/15 51/60/15
f 47/56/13 186/252/16 50/59/16
f 54/65/13 60/73/13 55/66/14
f 57/68/16 187/253/16 58/69/15
f 55/71/14 59/70/15 58/69/15
f 54/65/13 187/253/16 57/68/16
f 61/74/13 67/82/13 62/75/14
f 64/77/16 188/254/16 65/78/15
f 62/80/14 66/79/15 65/78/15
f 61/74/13 188/254/16 64/77/16
f 68/83/13 74/91/13 69/84/14
f 71/86/16 189/255/16 72/87/15
f 69/89/14 73/88/15 72/87/15
f 68/83/13 189/255/16 71/86/16
f 75/92/13 81/100/13 76/93/14
f 78/95/16 190/256/16 79/96/15
f 76/98/14 80/97/15 79/96/15
f 75/92/13 190/256/16 78/95/16
f 16/17/13 181/247/16 25/26/16
f 17/108/14 27/28/15 26/27/15
f 12/12/12 85/111/19 84/110/18
f 6/6/6 89/116/23 88/114/22
f 1/1/1 84/121/18 90/117/24
f 10/10/10 87/113/21 85/111/19
f 4/4/4 90/117/24 89/116/23
f 8/8/8 88/114/22 87/113/21
f 91/124/13 119/156/13 92/125/14
f 94/127/13 160/211/13 95/128/14
f 97/130/13 112/149/13 98/131/14
f 100/133/14 124/163/15 101/134/15
f 103/136/16 191/257/16 104/137/15
f 92/139/14 114/151/15 106/140/15
f 98/142/14 115/152/15 107/143/15
f 108/145/16 192/258/16 109/146/15
f 97/130/13 193/259/16 111/148/16
f 113/150/16 194/260/16 106/140/15
f 111/148/16 193/259/16 107/143/15
f 116/153/13 195/261/16 117/154/16
f 91/124/13 194/260/16 113/150/16
f 120/157/13 192/258/16 108/145/16
f 120/157/13 121/158/13 122/159/14
f 122/161/14 110/147/15 109/146/15
f 117/154/16 195/261/16 101/134/15
f 116/153/13 118/155/13 100/164/14
f 125/166/13 131/174/13 126/167/14
f 128/169/16 196/262/16 129/170/15
f 126/172/14 130/171/15 129/170/15
f 125/166/13 196/262/16 128/169/16
f 132/175/13 138/183/13 133/176/14
f 135/178/16 197/263/16 136/179/15
f 133/181/14 137/180/15 136/179/15
f 132/175/13 197/263/16 135/178/16
f 139/184/13 145/192/13 140/185/14
f 142/187/16 198/264/16 143/188/15
f 140/190/14 144/189/15 143/188/15
f 139/184/13 198/264/16 142/187/16
f 146/193/13 152/201/13 147/194/14
f 149/196/16 199/265/16 150/197/15
f 147/199/14 151/198/15 150/197/15
f 146/193/13 199/265/16 149/196/16
f 153/202/13 159/210/13 154/203/14
f 156/205/16 200/266/16 157/206/15
f 154/208/14 158/207/15 157/206/15
f 153/202/13 200/266/16 156/205/16
f 94/127/13 191/257/16 103/136/16
f 95/212/14 105/138/15 104/137/15
f 161/214/1 164/217/4 162/215/2
f 164/217/4 166/219/6 165/218/5
f 166/219/6 168/221/8 167/220/7
f 168/221/8 170/223/10 169/222/9
f 170/223/10 172/225/12 171/224/11
f 172/225/12 161/246/1 163/226/3
f 172/225/12 175/234/19 174/233/18
f 166/219/6 179/239/23 178/237/22
f 161/214/1 174/244/18 180/240/24
f 170/223/10 177/236/21 175/234/19
f 164/217/4 180/240/24 179/239/23
f 168/221/8 178/237/22 177/236/21
