# Blender v2.80 (sub 75) OBJ File: ''
# www.blender.org
o Cylinder.001
v -0.450000 -5.100000 -0.000000
v -0.450000 0.000000 -0.000000
v -0.406699 -5.100000 0.025000
v -0.406699 0.000000 0.025000
v -0.406699 -5.100000 0.075000
v -0.406699 0.000000 0.075000
v -0.450000 -5.100000 0.100000
v -0.450000 0.000000 0.100000
v -0.493301 -5.100000 0.075000
v -0.493301 0.000000 0.075000
v -0.493301 -5.100000 0.025000
v -0.493301 0.000000 0.025000
v 0.406699 0.268349 -0.002500
v 0.406699 0.311651 0.022500
v 0.450000 0.333301 0.035000
v 0.493301 0.311651 0.022500
v 0.493301 0.268349 -0.002500
v 0.450000 0.246699 -0.015000
v 0.450000 0.246699 -0.085000
v 0.493301 0.268349 -0.097500
v 0.493301 0.311651 -0.122500
v 0.450000 0.333301 -0.135000
v 0.406699 0.311651 -0.122500
v 0.406699 0.268349 -0.097500
v 0.406699 0.200000 -0.125000
v 0.450000 0.200000 -0.000000
v 0.493301 0.200000 0.025000
v 0.493301 0.200000 0.075000
v 0.450000 0.200000 0.100000
v 0.406699 0.200000 0.075000
v 0.406699 0.200000 0.025000
v 0.406699 0.200000 -0.175000
v 0.450000 0.200000 -0.200000
v 0.493301 0.200000 -0.175000
v 0.493301 0.200000 -0.125000
v 0.450000 0.200000 -0.100000
v 0.450000 -0.020000 -0.100000
v 0.493301 -0.020000 -0.125000
v 0.493301 -0.020000 -0.175000
v 0.450000 -0.020000 -0.200000
v 0.406699 -0.020000 -0.175000
v 0.406699 -0.020000 -0.125000
v 0.406699 0.000000 0.025000
v 0.406699 -5.100000 0.025000
v 0.438482 -3.058494 0.084072
v -0.438482 -3.012736 0.015928
v -0.438482 -3.058494 0.015928
v -0.438482 -3.012736 0.084072
v -0.438482 -3.058494 0.084072
v 0.438482 -2.512736 0.015928
v 0.438482 -2.558494 0.015928
v 0.438482 -2.512736 0.084072
v 0.438482 -2.558494 0.084072
v -0.438482 -2.512736 0.015928
v -0.438482 -2.558494 0.015928
v -0.438482 -2.512736 0.084072
v -0.438482 -2.558494 0.084072
v -0.438482 -0.058494 0.084072
v -0.438482 -0.012736 0.084072
v -0.438482 -0.058494 0.015928
v -0.438482 -0.012736 0.015928
v 0.438482 -0.058494 0.084072
v 0.438482 -0.012736 0.084072
v 0.438482 -0.058494 0.015928
v 0.438482 -0.012736 0.015928
v -0.438482 -0.558494 0.084072
v -0.438482 -0.512736 0.084072
v -0.438482 -0.558494 0.015928
v -0.438482 -0.512736 0.015928
v 0.438482 -0.558494 0.084072
v 0.438482 -0.512736 0.084072
v 0.438482 -0.558494 0.015928
v 0.438482 -0.512736 0.015928
v -0.438482 -1.058494 0.084072
v -0.438482 -1.012736 0.084072
v -0.438482 -1.058494 0.015928
v -0.438482 -1.012736 0.015928
v 0.438482 -1.058494 0.084072
v 0.438482 -1.012736 0.084072
v 0.438482 -1.058494 0.015928
v 0.438482 -1.012736 0.015928
v -0.438482 -1.558494 0.084072
v -0.438482 -1.512736 0.084072
v -0.438482 -1.558494 0.015928
v -0.438482 -1.512736 0.015928
v 0.438482 -1.558494 0.084072
v 0.438482 -1.512736 0.084072
v 0.438482 -1.558494 0.015928
v 0.438482 -1.512736 0.015928
v -0.438482 -2.058494 0.084072
v -0.438482 -2.012736 0.084072
v -0.438482 -2.058494 0.015928
v -0.438482 -2.012736 0.015928
v 0.438482 -2.058494 0.084072
v 0.438482 -2.012736 0.084072
v 0.438482 -2.058494 0.015928
v 0.438482 -2.012736 0.015928
v 0.438482 -3.012736 0.084072
v -0.493301 -0.020000 -0.125000
v -0.493301 -0.020000 -0.175000
v -0.450000 -0.020000 -0.200000
v -0.406699 -0.020000 -0.175000
v -0.406699 -0.020000 -0.125000
v -0.450000 -0.020000 -0.100000
v -0.450000 0.200000 -0.100000
v -0.406699 0.200000 -0.125000
v -0.406699 0.200000 -0.175000
v -0.450000 0.200000 -0.200000
v -0.493301 0.200000 -0.175000
v 0.406699 0.000000 0.075000
v 0.406699 -5.100000 0.075000
v 0.450000 0.000000 0.100000
v 0.450000 -5.100000 0.100000
v 0.493301 0.000000 0.075000
v 0.493301 -5.100000 0.075000
v 0.493301 0.000000 0.025000
v 0.493301 -5.100000 0.025000
v 0.450000 0.000000 -0.000000
v 0.450000 -5.100000 -0.000000
v 0.438482 -4.512735 0.015928
v 0.438482 -4.558494 0.015928
v 0.438482 -4.512735 0.084072
v 0.438482 -4.558494 0.084072
v -0.438482 -4.512735 0.015928
v -0.438482 -4.558494 0.015928
v -0.438482 -4.512735 0.084072
v -0.438482 -4.558494 0.084072
v 0.438482 -4.012735 0.015928
v 0.438482 -4.058494 0.015928
v 0.438482 -4.012735 0.084072
v 0.438482 -4.058494 0.084072
v -0.438482 -4.012735 0.015928
v -0.438482 -4.058494 0.015928
v -0.438482 -4.012735 0.084072
v -0.438482 -4.058494 0.084072
v 0.438482 -3.512736 0.015928
v 0.438482 -3.558494 0.015928
v 0.438482 -3.512736 0.084072
v 0.438482 -3.558494 0.084072
v -0.438482 -3.512736 0.015928
v -0.438482 -3.558494 0.015928
v -0.438482 -3.512736 0.084072
v -0.438482 -3.558494 0.084072
v 0.438482 -3.012736 0.015928
v 0.438482 -3.058494 0.015928
v -0.493301 0.200000 0.025000
v -0.493301 0.200000 0.075000
v -0.450000 0.200000 0.100000
v -0.406699 0.200000 0.075000
v -0.406699 0.200000 0.025000
v -0.450000 0.200000 -0.000000
v -0.493301 0.200000 -0.125000
v -0.493301 0.268349 -0.097500
v -0.493301 0.311651 -0.122500
v -0.450000 0.333301 -0.135000
v -0.406699 0.311651 -0.122500
v -0.406699 0.268349 -0.097500
v -0.450000 0.246699 -0.085000
v -0.450000 0.246699 -0.015000
v -0.406699 0.268349 -0.002500
v -0.406699 0.311651 0.022500
v -0.450000 0.333301 0.035000
v -0.493301 0.311651 0.022500
v -0.493301 0.268349 -0.002500
vt 0.272833 0.379965
vt 0.223816 -2.387883
vt 0.272833 -2.387883
vt 0.223816 0.379965
vt 0.183097 -2.387883
vt 0.183097 0.379965
vt 0.141673 -2.387883
vt 0.141673 0.379965
vt 0.101792 -2.387883
vt 0.101792 0.379965
vt 0.061407 -2.387883
vt 0.061408 0.379965
vt 0.012486 -2.387883
vt 0.289261 0.354825
vt 0.977970 0.390761
vt 0.289261 0.390761
vt 0.183097 0.562263
vt 0.223816 0.633011
vt 0.183097 0.633011
vt 0.101792 0.562263
vt 0.061408 0.633011
vt 0.061408 0.562263
vt 0.290005 0.752469
vt 0.978715 0.788405
vt 0.290005 0.788405
vt 0.290005 0.946392
vt 0.978715 0.982328
vt 0.290005 0.982328
vt 0.981571 0.014966
vt 0.292862 0.068483
vt 0.292862 0.014966
vt 0.978715 0.698953
vt 0.290005 0.663018
vt 0.978715 0.663017
vt 0.977970 0.211857
vt 0.289261 0.265374
vt 0.289261 0.211857
vt 0.978714 0.803424
vt 0.290005 0.856941
vt 0.290005 0.803424
vt 0.979574 0.499315
vt 0.290865 0.463380
vt 0.979574 0.463380
vt 0.978715 0.892876
vt 0.978715 0.946393
vt 0.977970 0.301309
vt 0.977970 0.265374
vt 0.978715 0.856941
vt 0.292862 0.157934
vt 0.981571 0.104417
vt 0.981571 0.157934
vt 0.977970 0.354826
vt 0.290865 0.552831
vt 0.979574 0.552832
vt 0.979574 0.588767
vt 0.290865 0.588767
vt 0.979574 0.409863
vt 0.290865 0.409863
vt 0.981571 0.068482
vt 0.981571 0.193869
vt 0.292862 0.193869
vt 0.290865 0.552831
vt 0.979574 0.588767
vt 0.290865 0.588767
vt 0.979574 0.499315
vt 0.290865 0.463380
vt 0.979574 0.463380
vt 0.979574 0.409863
vt 0.290865 0.409863
vt 0.979574 0.552832
vt 0.292862 0.157934
vt 0.981571 0.193869
vt 0.292862 0.193869
vt 0.981571 0.104417
vt 0.292862 0.068483
vt 0.981571 0.068482
vt 0.981571 0.014966
vt 0.292862 0.014966
vt 0.981571 0.157934
vt 0.289261 0.354825
vt 0.977970 0.390761
vt 0.289261 0.390761
vt 0.977970 0.301309
vt 0.289261 0.265374
vt 0.977970 0.265374
vt 0.977970 0.211857
vt 0.289261 0.211857
vt 0.977970 0.354826
vt 0.290005 0.946392
vt 0.978715 0.982328
vt 0.290005 0.982328
vt 0.978715 0.892876
vt 0.290005 0.856941
vt 0.978715 0.856941
vt 0.978714 0.803424
vt 0.290005 0.803424
vt 0.978715 0.946393
vt 0.290005 0.752469
vt 0.978715 0.788405
vt 0.290005 0.788405
vt 0.978715 0.698953
vt 0.290005 0.663018
vt 0.978715 0.663017
vt 0.978715 0.609502
vt 0.290005 0.609501
vt 0.978715 0.752470
vt 0.183097 0.782466
vt 0.223816 0.983479
vt 0.183097 0.983479
vt 0.012487 0.782466
vt 0.061408 0.983479
vt 0.012487 0.983479
vt 0.101792 0.711541
vt 0.141674 0.782466
vt 0.101792 0.782466
vt 0.012487 0.711541
vt 0.061408 0.782466
vt 0.141674 0.711541
vt 0.141674 0.633011
vt 0.272833 0.711541
vt 0.223816 0.782466
vt 0.223816 0.711541
vt 0.061408 0.711541
vt 0.141674 0.782466
vt 0.101792 0.983479
vt 0.101792 0.782466
vt 0.101792 0.711541
vt 0.101792 0.633011
vt 0.061408 0.711541
vt 0.223816 0.562263
vt 0.272833 0.633011
vt 0.012487 0.711541
vt 0.061408 0.782466
vt 0.012487 0.782466
vt 0.223816 0.711541
vt 0.141674 0.562263
vt 0.012487 0.633011
vt 0.012487 0.562263
vt 0.272833 0.782466
vt 0.223816 0.983479
vt 0.223816 0.782466
vt 0.141673 0.379965
vt 0.101792 0.379965
vt 0.272833 0.711541
vt 0.183097 0.379965
vt 0.183097 0.782466
vt 0.183097 0.711541
vt 0.183097 0.983479
vt 0.272833 0.379965
vt 0.223816 0.379965
vt 0.061408 0.379965
vt 0.012486 -2.387883
vt 0.061407 -2.387883
vt 0.061408 0.983479
vt 0.141674 0.983479
vt 0.101792 -2.387883
vt 0.141673 -2.387883
vt 0.012487 0.983479
vt 0.012487 0.379965
vt 0.141674 0.562263
vt 0.978715 0.752470
vt 0.223816 -2.387883
vt 0.272833 -2.387883
vt 0.183097 -2.387883
vt 0.978715 0.609502
vt 0.290005 0.609501
vt 0.101792 0.562263
vt 0.223816 0.562263
vt 0.061408 0.562263
vt 0.012487 0.562263
vt 0.012487 0.379965
vt 0.183097 0.562263
vt 0.223816 0.633011
vt 0.183097 0.711541
vt 0.183097 0.633011
vt 0.272833 0.782466
vt 0.141674 0.983479
vt 0.141674 0.711541
vt 0.101792 0.983479
vt 0.101792 0.633011
vt 0.272833 0.633011
vt 0.061408 0.633011
vt 0.141674 0.633011
vt 0.012487 0.633011
vt 0.290005 0.698953
vt 0.290865 0.499315
vt 0.290005 0.892876
vt 0.289261 0.301309
vt 0.292862 0.104417
vt 0.290865 0.499315
vt 0.292862 0.104417
vt 0.289261 0.301309
vt 0.290005 0.892876
vt 0.290005 0.698953
vt 0.272833 0.562263
vt 0.272833 0.983479
vt 0.272833 0.562263
vt 0.272833 0.983479
vn -0.0000 0.0000 -1.0000
vn 0.8660 0.0000 -0.5000
vn 0.8660 0.0000 0.5000
vn 0.0000 0.0000 1.0000
vn -0.8660 0.0000 0.5000
vn -0.8660 0.0000 -0.5000
vn 0.0000 0.7071 -0.7071
vn 0.0000 -0.7071 -0.7071
vn 0.8324 0.1299 0.5387
vn 0.9427 -0.2784 -0.1840
vn 0.7927 0.5140 0.3278
vn -0.8324 0.1299 0.5387
vn -0.9427 -0.2784 -0.1840
vn -0.8876 -0.0757 -0.4543
vn 0.0000 -0.7071 0.7071
vn 0.0000 0.7071 0.7071
vn 0.8324 0.1299 -0.5387
vn 0.0000 -0.1629 0.9866
vn -0.7927 0.5140 -0.3278
vn 0.0000 0.2062 -0.9785
vn -0.8324 0.1299 -0.5387
vn -0.0000 -0.8106 0.5855
vn -0.8877 -0.0757 0.4543
vn 0.0000 0.8505 -0.5259
vn 0.0000 0.8505 0.5259
vn 0.8877 -0.0757 0.4543
vn 0.9427 -0.2784 0.1840
vn -0.9427 -0.2784 0.1840
vn -0.7927 0.5140 0.3278
vn 0.8877 -0.0757 -0.4543
vn -0.0000 -0.8106 -0.5855
vn 0.0000 0.2062 0.9785
vn -0.0000 -0.1629 -0.9866
vn 0.7927 0.5140 -0.3278
s 1
f 2/1/1 3/2/2 1/3/1
f 4/4/2 5/5/3 3/2/2
f 6/6/3 7/7/4 5/5/3
f 8/8/4 9/9/5 7/7/4
f 10/10/5 11/11/6 9/9/5
f 12/12/6 1/13/1 11/11/6
f 140/14/7 137/15/8 141/16/8
f 28/17/9 17/18/10 16/19/11
f 30/20/12 13/21/13 31/22/14
f 124/23/7 121/24/8 125/25/8
f 132/26/7 129/27/8 133/28/8
f 145/29/8 49/30/15 47/31/8
f 122/32/16 127/33/15 123/34/15
f 137/35/8 143/36/15 141/37/8
f 129/38/8 135/39/15 133/40/8
f 52/41/16 57/42/15 53/43/15
f 132/26/7 130/44/16 128/45/7
f 138/46/16 143/36/15 139/47/15
f 130/44/16 135/39/15 131/48/15
f 46/49/7 98/50/16 144/51/7
f 140/14/7 138/46/16 136/52/7
f 54/53/7 52/41/16 50/54/7
f 54/53/7 51/55/8 55/56/8
f 51/57/8 57/42/15 55/58/8
f 98/50/16 49/30/15 45/59/15
f 46/49/7 145/60/8 47/61/8
f 61/62/7 64/63/8 60/64/8
f 63/65/16 58/66/15 62/67/15
f 64/68/8 58/66/15 60/69/8
f 61/62/7 63/65/16 65/70/7
f 69/71/7 72/72/8 68/73/8
f 71/74/16 66/75/15 70/76/15
f 72/77/8 66/75/15 68/78/8
f 69/71/7 71/74/16 73/79/7
f 77/80/7 80/81/8 76/82/8
f 79/83/16 74/84/15 78/85/15
f 80/86/8 74/84/15 76/87/8
f 77/80/7 79/83/16 81/88/7
f 85/89/7 88/90/8 84/91/8
f 87/92/16 82/93/15 86/94/15
f 88/95/8 82/93/15 84/96/8
f 85/89/7 87/92/16 89/97/7
f 93/98/7 96/99/8 92/100/8
f 95/101/16 90/102/15 94/103/15
f 96/104/8 90/102/15 92/105/8
f 93/98/7 95/101/16 97/106/7
f 107/107/17 103/108/3 102/109/2
f 105/110/18 99/111/5 104/112/4
f 154/113/19 108/114/20 109/115/21
f 158/116/22 152/117/23 105/110/18
f 16/19/11 22/118/24 15/119/25
f 158/120/22 106/121/26 157/122/27
f 109/115/21 99/111/5 152/117/23
f 153/123/28 109/115/21 152/117/23
f 33/124/20 41/125/6 32/126/21
f 23/127/19 33/124/20 32/126/21
f 14/128/29 24/129/28 13/21/13
f 27/130/30 18/131/31 17/18/10
f 15/119/25 23/127/19 14/128/29
f 19/132/22 25/133/23 36/134/18
f 18/131/31 20/135/27 17/18/10
f 29/136/32 14/128/29 30/20/12
f 13/21/13 19/132/22 18/137/31
f 29/136/32 16/19/11 15/119/25
f 31/22/14 18/137/31 26/138/33
f 36/139/18 38/140/3 35/141/26
f 112/142/4 30/20/12 110/143/5
f 19/144/22 35/141/26 20/135/27
f 114/145/3 29/136/32 112/142/4
f 20/135/27 34/146/17 21/147/34
f 35/141/26 39/148/2 34/146/17
f 118/149/1 27/130/30 116/150/2
f 43/151/6 119/152/1 44/153/6
f 32/126/21 42/154/5 25/133/23
f 110/143/5 31/22/14 43/151/6
f 24/129/28 32/126/21 25/133/23
f 34/146/17 40/155/1 33/124/20
f 116/150/2 28/17/9 114/145/3
f 112/142/4 111/156/5 113/157/4
f 25/133/23 37/158/4 36/134/18
f 21/147/34 33/124/20 22/118/24
f 17/18/10 21/147/34 16/19/11
f 110/143/5 44/153/6 111/156/5
f 43/151/6 26/138/33 118/159/1
f 6/6/3 148/160/32 8/8/4
f 124/23/7 122/32/16 120/161/7
f 118/149/1 117/162/2 119/163/1
f 116/150/2 115/164/3 117/162/2
f 114/145/3 113/157/4 115/164/3
f 121/165/8 127/33/15 125/166/8
f 8/8/4 147/167/12 10/10/5
f 2/1/1 150/168/30 4/4/2
f 10/10/5 146/169/14 12/12/6
f 12/12/6 151/170/33 2/171/1
f 4/4/2 149/172/9 6/6/3
f 160/173/10 156/174/34 161/175/11
f 105/176/18 103/108/3 106/121/26
f 157/122/27 107/107/17 156/174/34
f 107/107/17 101/177/1 108/114/20
f 156/174/34 108/114/20 155/178/24
f 108/114/20 100/179/6 109/115/21
f 148/160/32 163/180/29 147/167/12
f 159/181/31 157/122/27 160/173/10
f 163/180/29 153/123/28 164/182/13
f 162/183/25 154/113/19 163/180/29
f 164/182/13 158/116/22 159/184/31
f 161/175/11 155/178/24 162/183/25
f 148/160/32 161/175/11 162/183/25
f 149/172/9 160/173/10 161/175/11
f 150/168/30 159/181/31 160/173/10
f 147/167/12 164/182/13 146/169/14
f 146/169/14 159/184/31 151/170/33
f 2/1/1 4/4/2 3/2/2
f 4/4/2 6/6/3 5/5/3
f 6/6/3 8/8/4 7/7/4
f 8/8/4 10/10/5 9/9/5
f 10/10/5 12/12/6 11/11/6
f 12/12/6 2/171/1 1/13/1
f 140/14/7 136/52/7 137/15/8
f 28/17/9 27/130/30 17/18/10
f 30/20/12 14/128/29 13/21/13
f 124/23/7 120/161/7 121/24/8
f 132/26/7 128/45/7 129/27/8
f 145/29/8 45/59/15 49/30/15
f 122/32/16 126/185/16 127/33/15
f 137/35/8 139/47/15 143/36/15
f 129/38/8 131/48/15 135/39/15
f 52/41/16 56/186/16 57/42/15
f 132/26/7 134/187/16 130/44/16
f 138/46/16 142/188/16 143/36/15
f 130/44/16 134/187/16 135/39/15
f 46/49/7 48/189/16 98/50/16
f 140/14/7 142/188/16 138/46/16
f 54/53/7 56/186/16 52/41/16
f 54/53/7 50/54/7 51/55/8
f 51/57/8 53/43/15 57/42/15
f 98/50/16 48/189/16 49/30/15
f 46/49/7 144/51/7 145/60/8
f 61/62/7 65/70/7 64/63/8
f 63/65/16 59/190/16 58/66/15
f 64/68/8 62/67/15 58/66/15
f 61/62/7 59/190/16 63/65/16
f 69/71/7 73/79/7 72/72/8
f 71/74/16 67/191/16 66/75/15
f 72/77/8 70/76/15 66/75/15
f 69/71/7 67/191/16 71/74/16
f 77/80/7 81/88/7 80/81/8
f 79/83/16 75/192/16 74/84/15
f 80/86/8 78/85/15 74/84/15
f 77/80/7 75/192/16 79/83/16
f 85/89/7 89/97/7 88/90/8
f 87/92/16 83/193/16 82/93/15
f 88/95/8 86/94/15 82/93/15
f 85/89/7 83/193/16 87/92/16
f 93/98/7 97/106/7 96/99/8
f 95/101/16 91/194/16 90/102/15
f 96/104/8 94/103/15 90/102/15
f 93/98/7 91/194/16 95/101/16
f 107/107/17 106/121/26 103/108/3
f 105/110/18 152/117/23 99/111/5
f 154/113/19 155/178/24 108/114/20
f 158/116/22 153/123/28 152/117/23
f 16/19/11 21/147/34 22/118/24
f 158/120/22 105/176/18 106/121/26
f 109/115/21 100/179/6 99/111/5
f 153/123/28 154/113/19 109/115/21
f 33/124/20 40/155/1 41/125/6
f 23/127/19 22/118/24 33/124/20
f 14/128/29 23/127/19 24/129/28
f 27/130/30 26/195/33 18/131/31
f 15/119/25 22/118/24 23/127/19
f 19/132/22 24/129/28 25/133/23
f 18/131/31 19/144/22 20/135/27
f 29/136/32 15/119/25 14/128/29
f 13/21/13 24/129/28 19/132/22
f 29/136/32 28/17/9 16/19/11
f 31/22/14 13/21/13 18/137/31
f 36/139/18 37/196/4 38/140/3
f 112/142/4 29/136/32 30/20/12
f 19/144/22 36/139/18 35/141/26
f 114/145/3 28/17/9 29/136/32
f 20/135/27 35/141/26 34/146/17
f 35/141/26 38/140/3 39/148/2
f 118/149/1 26/195/33 27/130/30
f 43/151/6 118/159/1 119/152/1
f 32/126/21 41/125/6 42/154/5
f 110/143/5 30/20/12 31/22/14
f 24/129/28 23/127/19 32/126/21
f 34/146/17 39/148/2 40/155/1
f 116/150/2 27/130/30 28/17/9
f 112/142/4 110/143/5 111/156/5
f 25/133/23 42/154/5 37/158/4
f 21/147/34 34/146/17 33/124/20
f 17/18/10 20/135/27 21/147/34
f 110/143/5 43/151/6 44/153/6
f 43/151/6 31/22/14 26/138/33
f 6/6/3 149/172/9 148/160/32
f 124/23/7 126/185/16 122/32/16
f 118/149/1 116/150/2 117/162/2
f 116/150/2 114/145/3 115/164/3
f 114/145/3 112/142/4 113/157/4
f 121/165/8 123/34/15 127/33/15
f 8/8/4 148/160/32 147/167/12
f 2/1/1 151/197/33 150/168/30
f 10/10/5 147/167/12 146/169/14
f 12/12/6 146/169/14 151/170/33
f 4/4/2 150/168/30 149/172/9
f 160/173/10 157/122/27 156/174/34
f 105/176/18 104/198/4 103/108/3
f 157/122/27 106/121/26 107/107/17
f 107/107/17 102/109/2 101/177/1
f 156/174/34 107/107/17 108/114/20
f 108/114/20 101/177/1 100/179/6
f 148/160/32 162/183/25 163/180/29
f 159/181/31 158/120/22 157/122/27
f 163/180/29 154/113/19 153/123/28
f 162/183/25 155/178/24 154/113/19
f 164/182/13 153/123/28 158/116/22
f 161/175/11 156/174/34 155/178/24
f 148/160/32 149/172/9 161/175/11
f 149/172/9 150/168/30 160/173/10
f 150/168/30 151/197/33 159/181/31
f 147/167/12 163/180/29 164/182/13
f 146/169/14 164/182/13 159/184/31
