# Blender v2.80 (sub 75) OBJ File: ''
# www.blender.org
mtllib quarterpipe.mtl
g Quarterpipe
v 1.999999 0.038054 -0.871595
v 1.999999 0.085553 -1.305301
v 1.999999 0.009517 -0.436229
v 1.999999 5.773901 -9.063114
v 1.999999 6.173254 -9.238829
v 1.999999 1.339775 -5.000052
v 1.999999 1.566118 -5.373047
v 1.999999 5.382595 -8.870147
v 1.999999 0.000000 0.000000
v 2.000000 6.993037 -9.537196
v 2.000000 7.411909 -9.659281
v 1.999999 1.129917 -4.617537
v 1.999999 5.000076 -8.660294
v 1.999999 6.579890 -9.396955
v 1.999999 0.936944 -4.226233
v 2.000000 8.263624 -9.848093
v 2.000000 8.694846 -9.914459
v 2.000000 4.627077 -8.433957
v 1.999999 2.339600 -6.427928
v 1.999999 2.627274 -6.755955
v 1.999999 0.761223 -3.826883
v 1.999999 1.808516 -5.735816
v 2.000000 4.264305 -8.191566
v 2.000000 9.563920 -9.990482
v 2.000000 10.000000 -9.999995
v 1.999999 0.603090 -3.420249
v 1.999999 2.928984 -7.071119
v 1.999999 3.244154 -7.372825
v 1.999999 3.912450 -7.933581
v 2.000000 7.835705 -9.762980
v 2.000000 9.128552 -9.961952
v 1.999999 0.237046 -2.164438
v 1.999999 0.340751 -2.588234
v 1.999999 0.462843 -3.007104
v 1.999999 0.151927 -1.736523
v 1.999999 3.572185 -7.660494
v 1.999999 2.066508 -6.087667
v -2.000000 -0.999999 -9.666667
v -2.000000 -1.000000 -4.333334
v -2.000000 -0.999998 -15.000001
v -2.000000 4.500002 -15.000000
v -2.000001 -1.000001 0.999999
v -2.000000 11.000002 -14.999999
v -2.000001 2.066507 -6.087667
v -2.000001 3.572185 -7.660495
v -2.000001 0.151927 -1.736524
v -2.000001 0.462843 -3.007105
v -2.000001 0.340751 -2.588235
v -2.000001 0.237046 -2.164439
v -2.000000 9.128551 -9.961953
v -2.000000 7.835705 -9.762980
v -2.000001 3.912449 -7.933582
v -2.000001 3.244153 -7.372826
v -2.000001 2.928983 -7.071120
v -2.000001 0.603089 -3.420250
v -2.000000 9.999999 -9.999996
v -2.000000 9.563919 -9.990483
v -2.000000 4.264304 -8.191566
v -2.000001 1.808515 -5.735817
v -2.000001 0.761222 -3.826884
v -2.000001 2.627274 -6.755956
v -2.000001 2.339599 -6.427929
v -2.000000 4.627076 -8.433958
v -2.000000 8.694845 -9.914460
v -2.000000 8.263623 -9.848094
v -2.000001 0.936943 -4.226234
v -2.000001 6.579890 -9.396956
v -2.000001 5.000076 -8.660295
v -2.000001 1.129916 -4.617538
v -2.000000 7.411908 -9.659282
v -2.000000 6.993037 -9.537197
v -2.000001 -0.000001 -0.000001
v 2.000000 11.000003 -14.999998
v -2.000001 5.382594 -8.870148
v -2.000001 1.566117 -5.373048
v -2.000001 1.339774 -5.000053
v -2.000001 6.173253 -9.238830
v 1.999999 -1.000000 1.000000
v -2.000001 5.773901 -9.063115
v 2.000000 4.500002 -14.999999
v 2.000000 -0.999998 -15.000000
v -2.000001 0.009516 -0.436230
v -2.000001 0.085553 -1.305302
v -2.000001 0.038053 -0.871596
v 2.000000 -0.999999 -4.333333
v 2.000000 -0.999998 -9.666666
v 2.000000 11.000000 -9.999995
v -2.000000 10.999999 -9.999996
vt 0.266324 0.614291
vt 0.399024 0.398653
vt 0.266324 0.398653
vt 0.399024 0.796753
vt 0.266324 0.796753
vt 0.746991 0.530984
vt 0.929453 0.354051
vt 0.754810 0.305115
vt 0.133255 0.398654
vt 0.265955 0.575587
vt 0.265955 0.398653
vt 0.766483 0.296556
vt 0.858793 0.186546
vt 0.929453 0.177118
vt 0.865195 0.173565
vt 0.836281 0.223645
vt 0.844322 0.211610
vt 0.827722 0.235318
vt 0.851831 0.199236
vt 0.777771 0.287496
vt 0.788653 0.277953
vt 0.799109 0.267944
vt 0.809118 0.257488
vt 0.818662 0.246606
vt 0.730401 0.320665
vt 0.742775 0.313156
vt 0.891238 0.090969
vt 0.929453 0.000185
vt 0.893440 0.076663
vt 0.704729 0.334028
vt 0.717711 0.327626
vt 0.895962 0.047831
vt 0.896278 0.033359
vt 0.895016 0.062275
vt 0.871025 0.160316
vt 0.876271 0.146826
vt 0.884974 0.119224
vt 0.888414 0.105165
vt 0.636329 0.357246
vt 0.650388 0.353806
vt 0.880923 0.133120
vt 0.622133 0.360070
vt 0.531354 0.530984
vt 0.578995 0.364794
vt 0.593439 0.363847
vt 0.564528 0.365109
vt 0.607827 0.362272
vt 0.691481 0.339858
vt 0.677990 0.345103
vt 0.133255 0.575587
vt 0.265955 0.752520
vt 0.133255 0.752520
vt 0.265955 0.929453
vt 0.664284 0.349756
vt 0.353806 0.119219
vt 0.349756 0.133115
vt 0.530984 0.215822
vt 0.345103 0.146821
vt 0.339857 0.160312
vt 0.334028 0.173561
vt 0.364794 0.047827
vt 0.363847 0.062270
vt 0.530984 0.000185
vt 0.365109 0.033360
vt 0.362272 0.076658
vt 0.360070 0.090964
vt 0.357246 0.105160
vt 0.133120 0.349754
vt 0.119224 0.353805
vt 0.177118 0.398284
vt 0.173565 0.334026
vt 0.160316 0.339856
vt 0.105165 0.357245
vt 0.146826 0.345102
vt 0.090969 0.360069
vt 0.076663 0.362271
vt 0.062275 0.363847
vt 0.000185 0.398284
vt 0.047832 0.364793
vt 0.033360 0.365109
vt 0.199236 0.320662
vt 0.186546 0.327624
vt 0.223645 0.305112
vt 0.211610 0.313153
vt 0.235318 0.296553
vt 0.354051 0.398284
vt 0.246606 0.287493
vt 0.267944 0.267940
vt 0.257488 0.277950
vt 0.305114 0.223641
vt 0.296556 0.235314
vt 0.277953 0.257485
vt 0.287496 0.246602
vt 0.320665 0.199232
vt 0.313156 0.211606
vt 0.327626 0.186542
vt 0.530984 0.398284
vt 0.697228 0.664053
vt 0.531353 0.531353
vt 0.531353 0.664053
vt 0.531353 0.365110
vt 0.365109 0.000185
vt 0.399024 0.614291
vt 0.929453 0.530984
vt 0.133255 0.929453
vt 0.697228 0.531353
vt 0.000185 0.446300
vt 0.132885 0.460773
vt 0.132885 0.446299
vt 0.132885 0.895001
vt 0.000185 0.909474
vt 0.132885 0.909475
vt 0.132885 0.923949
vt 0.000185 0.938422
vt 0.132885 0.938423
vt 0.000186 0.576568
vt 0.132886 0.591041
vt 0.132886 0.576567
vt 0.000186 0.591042
vt 0.132886 0.605515
vt 0.000186 0.533145
vt 0.132886 0.547619
vt 0.132886 0.533144
vt 0.132886 0.750258
vt 0.000186 0.764732
vt 0.132886 0.764732
vt 0.000185 0.880526
vt 0.132886 0.880526
vt 0.000185 0.952898
vt 0.132885 0.999815
vt 0.132885 0.952899
vt 0.132886 0.866052
vt 0.000186 0.634464
vt 0.132886 0.648938
vt 0.132886 0.634464
vt 0.000186 0.619990
vt 0.132886 0.619990
vt 0.132886 0.706835
vt 0.000186 0.721309
vt 0.132886 0.721309
vt 0.132886 0.735784
vt 0.000186 0.648939
vt 0.132886 0.663412
vt 0.000186 0.504197
vt 0.132885 0.518670
vt 0.132885 0.504196
vt 0.000186 0.677887
vt 0.132886 0.692361
vt 0.132886 0.677887
vt 0.000186 0.750258
vt 0.000186 0.837103
vt 0.132886 0.851578
vt 0.132886 0.837104
vt 0.132885 0.489721
vt 0.132886 0.779207
vt 0.000186 0.547619
vt 0.132886 0.562093
vt 0.000186 0.779206
vt 0.132886 0.793681
vt 0.000185 0.475249
vt 0.132885 0.475247
vt 0.000185 0.460774
vt 0.000186 0.866051
vt 0.132886 0.808155
vt 0.000186 0.822629
vt 0.132886 0.822629
vt 0.000185 0.431830
vt 0.132885 0.431828
vt 0.000186 0.663413
vt 0.000186 0.562094
vt 0.000186 0.808154
vt 0.000186 0.692361
vt 0.000186 0.518671
vt 0.132884 0.398653
vt 0.000185 0.895000
vt 0.000185 0.923948
vt 0.000186 0.605516
vt 0.000185 0.999814
vt 0.000186 0.706835
vt 0.000186 0.735783
vt 0.000186 0.851577
vt 0.000185 0.489723
vt 0.000186 0.793680
vt 0.000185 0.398655
vn 0.0000 0.0000 -1.0000
vn -1.0000 0.0000 -0.0000
vn 0.0000 -1.0000 -0.0000
vn 1.0000 0.0000 0.0000
vn -0.0000 1.0000 0.0000
vn -0.0000 0.0436 0.9990
vn -0.0000 0.0871 0.9962
vn -0.0000 0.9848 0.1737
vn -0.0000 0.9914 0.1305
vn -0.0000 0.9962 0.0872
vn -0.0000 0.9990 0.0436
vn -0.0000 0.4226 0.9063
vn -0.0000 0.4617 0.8870
vn -0.0000 0.5000 0.8660
vn -0.0000 0.3007 0.9537
vn -0.0000 0.3420 0.9397
vn -0.0000 0.8191 0.5736
vn -0.0000 0.8434 0.5373
vn -0.0000 0.9763 0.2164
vn -0.0000 0.7071 0.7071
vn -0.0000 0.9659 0.2588
vn -0.0000 0.5736 0.8192
vn -0.0000 0.6088 0.7934
vn -0.0000 0.5373 0.8434
vn -0.0000 0.7373 0.6756
vn -0.0000 0.7660 0.6428
vn -0.0000 0.7933 0.6088
vn -0.0000 0.6428 0.7661
vn -0.0000 0.2164 0.9763
vn -0.0000 0.2588 0.9659
vn -0.0000 0.9998 0.0218
vn -0.0000 0.6756 0.7373
vn -0.0000 0.9397 0.3420
vn -0.0000 0.9537 0.3007
vn -0.0000 0.1736 0.9848
vn -0.0000 0.8660 0.5000
vn -0.0000 0.3827 0.9239
vn -0.0000 0.8870 0.4618
vn -0.0000 0.1305 0.9914
vn -0.0000 0.9063 0.4226
vn -0.0000 0.9239 0.3827
vn -0.0000 0.0109 0.9999
vn -0.0000 0.6428 0.7660
vn -0.0000 -0.0000 1.0000
usemtl Material.001
s 1
f 80/1/1 43/2/1 73/3/1
f 40/4/1 80/1/1 81/5/1
f 41/6/2 38/7/2 58/8/2
f 42/9/3 85/10/3 78/11/3
f 58/8/2 38/7/2 52/12/2
f 69/13/2 39/14/2 66/15/2
f 59/16/2 39/14/2 75/17/2
f 44/18/2 38/7/2 59/16/2
f 75/17/2 39/14/2 76/19/2
f 45/20/2 38/7/2 53/21/2
f 54/22/2 38/7/2 61/23/2
f 62/24/2 38/7/2 44/18/2
f 38/7/2 39/14/2 59/16/2
f 68/25/2 41/6/2 63/26/2
f 53/21/2 38/7/2 54/22/2
f 52/12/2 38/7/2 45/20/2
f 61/23/2 38/7/2 62/24/2
f 46/27/2 42/28/2 83/29/2
f 79/30/2 41/6/2 74/31/2
f 74/31/2 41/6/2 68/25/2
f 76/19/2 39/14/2 69/13/2
f 39/14/2 42/28/2 46/27/2
f 82/32/2 42/28/2 72/33/2
f 83/29/2 42/28/2 84/34/2
f 66/15/2 39/14/2 60/35/2
f 60/35/2 39/14/2 55/36/2
f 48/37/2 39/14/2 49/38/2
f 84/34/2 42/28/2 82/32/2
f 51/39/2 41/6/2 70/40/2
f 47/41/2 39/14/2 48/37/2
f 55/36/2 39/14/2 47/41/2
f 65/42/2 41/6/2 51/39/2
f 43/43/2 41/6/2 65/42/2
f 57/44/2 43/43/2 50/45/2
f 56/46/2 43/43/2 57/44/2
f 50/45/2 43/43/2 64/47/2
f 64/47/2 43/43/2 65/42/2
f 77/48/2 41/6/2 79/30/2
f 49/38/2 39/14/2 46/27/2
f 67/49/2 41/6/2 77/48/2
f 39/50/3 86/51/3 85/10/3
f 63/26/2 41/6/2 58/8/2
f 38/52/3 81/53/3 86/51/3
f 70/40/2 41/6/2 71/54/2
f 71/54/2 41/6/2 67/49/2
f 11/55/4 10/56/4 80/57/4
f 10/56/4 14/58/4 80/57/4
f 14/58/4 5/59/4 80/57/4
f 5/59/4 4/60/4 80/57/4
f 24/61/4 31/62/4 73/63/4
f 25/64/4 24/61/4 73/63/4
f 17/65/4 16/66/4 73/63/4
f 31/62/4 17/65/4 73/63/4
f 30/67/4 11/55/4 80/57/4
f 16/66/4 30/67/4 80/57/4
f 73/63/4 16/66/4 80/57/4
f 34/68/4 33/69/4 85/70/4
f 15/71/4 21/72/4 85/70/4
f 33/69/4 32/73/4 85/70/4
f 26/74/4 34/68/4 85/70/4
f 21/72/4 26/74/4 85/70/4
f 32/73/4 35/75/4 85/70/4
f 2/76/4 1/77/4 78/78/4
f 1/77/4 3/79/4 78/78/4
f 3/79/4 9/80/4 78/78/4
f 35/75/4 2/76/4 78/78/4
f 85/70/4 35/75/4 78/78/4
f 6/81/4 12/82/4 85/70/4
f 22/83/4 7/84/4 85/70/4
f 12/82/4 15/71/4 85/70/4
f 7/84/4 6/81/4 85/70/4
f 37/85/4 22/83/4 86/86/4
f 19/87/4 37/85/4 86/86/4
f 27/88/4 20/89/4 86/86/4
f 20/89/4 19/87/4 86/86/4
f 86/86/4 22/83/4 85/70/4
f 23/90/4 29/91/4 86/86/4
f 28/92/4 27/88/4 86/86/4
f 36/93/4 28/92/4 86/86/4
f 29/91/4 36/93/4 86/86/4
f 13/94/4 18/95/4 80/57/4
f 8/96/4 13/94/4 80/57/4
f 4/60/4 8/96/4 80/57/4
f 18/95/4 23/90/4 80/57/4
f 80/57/4 86/86/4 81/97/4
f 73/98/5 88/99/5 87/100/5
f 56/46/2 88/101/2 43/43/2
f 73/63/4 87/102/4 25/64/4
f 80/1/1 41/103/1 43/2/1
f 40/4/1 41/103/1 80/1/1
f 41/6/2 40/104/2 38/7/2
f 42/9/3 39/50/3 85/10/3
f 39/50/3 38/52/3 86/51/3
f 38/52/3 40/105/3 81/53/3
f 80/57/4 23/90/4 86/86/4
f 73/98/5 43/106/5 88/99/5
usemtl Material.002
f 57/107/6 31/108/7 24/109/6
f 35/110/8 83/111/9 2/112/9
f 1/113/10 82/114/11 3/115/11
f 79/116/12 8/117/13 4/118/12
f 74/119/13 13/120/14 8/117/13
f 71/121/15 14/122/16 10/123/15
f 22/124/17 75/125/18 7/126/18
f 49/127/19 35/110/8 32/128/19
f 83/111/9 1/113/10 2/112/9
f 72/129/20 78/130/20 9/131/20
f 33/132/21 49/127/19 32/128/19
f 58/133/22 29/134/23 23/135/22
f 13/120/14 63/136/24 18/137/24
f 20/138/25 62/139/26 19/140/26
f 63/136/24 23/135/22 18/137/24
f 62/139/26 37/141/27 19/140/26
f 52/142/23 36/143/28 29/134/23
f 51/144/29 11/145/30 30/146/29
f 82/114/11 9/131/31 3/115/11
f 53/147/32 27/148/20 28/149/32
f 37/141/27 59/150/17 22/124/17
f 55/151/33 34/152/34 26/153/33
f 16/154/35 51/144/29 30/146/29
f 75/125/18 6/155/36 7/126/18
f 67/156/16 5/157/37 14/122/16
f 76/158/36 12/159/38 6/155/36
f 64/160/39 16/154/35 17/161/39
f 50/162/7 17/161/39 31/108/7
f 34/152/34 48/163/21 33/132/21
f 15/164/40 60/165/41 21/166/41
f 56/167/42 24/109/6 25/168/42
f 45/169/43 28/149/32 36/143/28
f 77/170/37 4/118/12 5/157/37
f 12/159/38 66/171/40 15/164/40
f 54/172/20 20/138/25 27/148/20
f 60/165/41 26/153/33 21/166/41
f 70/173/30 10/123/15 11/145/30
f 87/174/44 56/167/42 25/168/42
f 57/107/6 50/162/7 31/108/7
f 35/110/8 46/175/8 83/111/9
f 1/113/10 84/176/10 82/114/11
f 79/116/12 74/119/13 8/117/13
f 74/119/13 68/177/14 13/120/14
f 71/121/15 67/156/16 14/122/16
f 22/124/17 59/150/17 75/125/18
f 49/127/19 46/175/8 35/110/8
f 83/111/9 84/176/10 1/113/10
f 72/129/20 42/178/20 78/130/20
f 33/132/21 48/163/21 49/127/19
f 58/133/22 52/142/23 29/134/23
f 13/120/14 68/177/14 63/136/24
f 20/138/25 61/179/25 62/139/26
f 63/136/24 58/133/22 23/135/22
f 62/139/26 44/180/27 37/141/27
f 52/142/23 45/169/43 36/143/28
f 51/144/29 70/173/30 11/145/30
f 82/114/11 72/129/31 9/131/31
f 53/147/32 54/172/20 27/148/20
f 37/141/27 44/180/27 59/150/17
f 55/151/33 47/181/34 34/152/34
f 16/154/35 65/182/35 51/144/29
f 75/125/18 76/158/36 6/155/36
f 67/156/16 77/170/37 5/157/37
f 76/158/36 69/183/38 12/159/38
f 64/160/39 65/182/35 16/154/35
f 50/162/7 64/160/39 17/161/39
f 34/152/34 47/181/34 48/163/21
f 15/164/40 66/171/40 60/165/41
f 56/167/42 57/107/6 24/109/6
f 45/169/43 53/147/32 28/149/32
f 77/170/37 79/116/12 4/118/12
f 12/159/38 69/183/38 66/171/40
f 54/172/20 61/179/25 20/138/25
f 60/165/41 55/151/33 26/153/33
f 70/173/30 71/121/15 10/123/15
f 87/174/44 88/184/44 56/167/42
