# Blender v2.80 (sub 75) OBJ File: ''
# www.blender.org
mtllib ramps.mtl
o Plane
v -1.000000 0.000000 0.000000
v 1.000000 -0.000000 -0.000000
v -1.000000 1.736482 -9.848078
v 1.000000 1.736482 -9.848078
v 3.000000 -0.000000 -0.000000
v 1.000000 3.420201 -9.396928
v 3.000000 3.420201 -9.396928
v 5.000000 -0.000000 -0.000000
v 3.000000 5.000000 -8.660254
v 5.000000 5.000000 -8.660254
v 5.000000 6.427876 -7.660446
v 7.000000 6.427876 -7.660446
v 7.000000 0.000000 0.000000
v 9.000000 -0.000000 -0.000000
v 7.000000 7.660444 -6.427876
v 9.000000 7.660444 -6.427876
v 11.000000 -0.000000 -0.000000
v 9.000000 8.660254 -5.000001
v 11.000000 8.660254 -5.000001
v 13.000000 -0.000000 -0.000000
v 11.000000 9.396926 -3.420202
v 13.000000 9.396926 -3.420202
v 15.000000 -0.000000 -0.000000
v 13.000000 9.848078 -1.736483
v 15.000000 9.848078 -1.736483
v 17.000000 -0.000000 -0.000000
v 15.000000 10.000001 -0.000002
v 17.000000 10.000001 -0.000002
v -1.000000 1.736482 -11.999999
v 1.000000 1.736482 -11.999999
v 1.000000 3.420202 -11.999999
v 3.000000 3.420202 -11.999999
v 3.000000 5.000000 -11.999999
v 5.000000 5.000000 -11.999999
v 5.000000 6.427876 -11.999999
v 7.000000 6.427876 -11.999999
v 7.000000 7.660444 -11.999999
v 9.000000 7.660444 -11.999999
v 9.000000 8.660254 -11.999999
v 11.000000 8.660254 -11.999999
v 11.000000 9.396926 -11.999999
v 13.000000 9.396926 -11.999999
v 13.000000 9.848077 -11.999999
v 15.000000 9.848077 -11.999999
v 15.000000 10.000000 -11.999999
v 17.000000 10.000000 -11.999999
v -1.000000 0.000000 -9.848078
v -1.000000 -0.000000 -11.999999
v 17.000000 -0.000000 -12.000000
v -1.000000 -1.000000 1.000000
v 1.000000 -1.000000 1.000000
v 3.000000 -1.000000 1.000000
v 5.000000 -1.000000 1.000000
v 7.000000 -1.000000 1.000000
v 9.000000 -1.000000 1.000000
v 11.000000 -1.000000 1.000000
v 13.000000 -1.000000 1.000000
v 15.000000 -1.000000 1.000000
v 17.000000 -1.000000 1.000000
v -1.000000 -1.000000 -12.000000
v 17.000000 -1.000000 -12.000000
v 1.000000 -1.000000 -12.000000
v 3.000000 -1.000000 -12.000000
v 5.000000 -1.000000 -12.000000
v 7.000000 -1.000000 -12.000000
v 9.000000 -1.000000 -12.000000
v 11.000000 -1.000000 -12.000000
v 13.000000 -1.000000 -12.000000
v 15.000000 -1.000000 -12.000000
v 1.000000 -0.000000 -11.999999
v 3.000000 -0.000000 -11.999999
v 5.000000 -0.000000 -11.999999
v 7.000000 -0.000000 -11.999999
v 9.000000 -0.000000 -11.999999
v 11.000000 -0.000000 -11.999999
v 13.000000 -0.000000 -11.999999
v 15.000000 -0.000000 -12.000000
vt 0.585754 0.336501
vt 0.642275 0.336501
vt 0.642275 0.675622
vt 0.585754 0.675622
vt 0.166436 0.583452
vt 0.222956 0.583452
vt 0.222956 0.677834
vt 0.166436 0.677834
vt 0.116189 0.435753
vt 0.358204 0.435621
vt 0.407994 0.439977
vt 0.116202 0.439977
vt 0.235635 0.555701
vt 0.292156 0.555701
vt 0.292156 0.678338
vt 0.235635 0.678338
vt 0.308016 0.520743
vt 0.364537 0.520743
vt 0.364537 0.678212
vt 0.308016 0.678212
vt 0.447914 0.433738
vt 0.504435 0.433738
vt 0.504434 0.676205
vt 0.447914 0.676205
vt 0.023400 0.616630
vt 0.079920 0.616630
vt 0.079920 0.677443
vt 0.023400 0.677443
vt 0.518667 0.385873
vt 0.575188 0.385873
vt 0.575188 0.675921
vt 0.518667 0.675921
vt 0.095832 0.603913
vt 0.152353 0.603913
vt 0.152353 0.677477
vt 0.095832 0.677477
vt 0.375648 0.478852
vt 0.432168 0.478852
vt 0.432168 0.676673
vt 0.375648 0.676673
vt 0.059623 0.414004
vt 0.302088 0.413754
vt 0.349684 0.426455
vt 0.059636 0.426753
vt 0.052641 0.386472
vt 0.250461 0.386734
vt 0.295079 0.407612
vt 0.052613 0.407290
vt 0.669259 0.978759
vt 0.669259 0.639637
vt 0.951861 0.639637
vt 0.951861 0.978759
vt 0.166099 0.313221
vt 0.200938 0.348047
vt 0.043469 0.348075
vt 0.043463 0.313242
vt 0.133452 0.266399
vt 0.161715 0.306745
vt 0.039078 0.306771
vt 0.039070 0.266419
vt 0.108530 0.215519
vt 0.129410 0.260135
vt 0.035028 0.260265
vt 0.034967 0.215620
vt 0.095170 0.158403
vt 0.107883 0.205995
vt 0.034320 0.205939
vt 0.034356 0.158356
vt 0.082615 0.142695
vt 0.021801 0.142695
vt 0.021801 0.093622
vt 0.082615 0.093622
vt 0.407994 0.153249
vt 0.398470 0.148096
vt 0.392087 0.142181
vt 0.387436 0.136217
vt 0.246497 0.381165
vt 0.206103 0.352970
vt 0.382553 0.131529
vt 0.378162 0.125046
vt 0.373955 0.118498
vt 0.373515 0.109541
vt 0.360923 0.093622
vt 0.048634 0.353203
vt 0.048676 0.381457
vt 0.021801 0.065362
vt 0.389183 0.065362
vt 0.980121 0.611377
vt 0.980121 0.978759
vt 0.493601 0.021276
vt 0.493601 0.049536
vt 0.437080 0.049536
vt 0.437080 0.021276
vt 0.493601 0.332138
vt 0.437080 0.332138
vt 0.493601 0.327844
vt 0.550121 0.327844
vt 0.550121 0.315095
vt 0.606641 0.315095
vt 0.606641 0.294276
vt 0.663162 0.294276
vt 0.663162 0.266021
vt 0.719682 0.266021
vt 0.719682 0.231189
vt 0.776202 0.231189
vt 0.776202 0.190837
vt 0.832723 0.190837
vt 0.832723 0.146191
vt 0.889243 0.146191
vt 0.889243 0.098609
vt 0.945763 0.098609
vt 0.945763 0.049536
vt 0.945763 0.021276
vt 0.889243 0.049536
vt 0.889243 0.021276
vt 0.832723 0.049536
vt 0.832723 0.021276
vt 0.776203 0.049536
vt 0.776203 0.021276
vt 0.719682 0.049536
vt 0.719682 0.021276
vt 0.663162 0.049536
vt 0.663162 0.021276
vt 0.606642 0.049536
vt 0.606642 0.021276
vt 0.550121 0.049536
vt 0.550121 0.021276
vt 0.021740 0.693699
vt 0.078260 0.693699
vt 0.078260 0.976301
vt 0.021740 0.976301
vt 0.096423 0.693699
vt 0.152943 0.693699
vt 0.152943 0.976301
vt 0.096423 0.976301
vt 0.166425 0.693699
vt 0.222945 0.693699
vt 0.222945 0.976301
vt 0.166425 0.976301
vt 0.236427 0.693699
vt 0.292948 0.693699
vt 0.292948 0.976301
vt 0.236428 0.976301
vt 0.306430 0.693699
vt 0.362950 0.693699
vt 0.362950 0.976301
vt 0.306430 0.976301
vt 0.376432 0.693699
vt 0.432953 0.693699
vt 0.432953 0.976301
vt 0.376432 0.976301
vt 0.446435 0.693699
vt 0.502955 0.693699
vt 0.502955 0.976301
vt 0.446435 0.976301
vt 0.516437 0.693699
vt 0.572958 0.693699
vt 0.572958 0.976301
vt 0.516437 0.976301
vt 0.586440 0.693699
vt 0.642960 0.693699
vt 0.642960 0.976301
vt 0.586440 0.976301
vt 0.710936 0.537098
vt 0.739196 0.488150
vt 0.773808 0.508133
vt 0.745548 0.557081
vt 0.908757 0.194462
vt 0.937018 0.145514
vt 0.971629 0.165497
vt 0.943369 0.214445
vt 0.852237 0.292358
vt 0.880497 0.243410
vt 0.915109 0.263393
vt 0.886848 0.312341
vt 0.795717 0.390254
vt 0.823977 0.341306
vt 0.858588 0.361289
vt 0.830328 0.410237
vt 0.767456 0.439202
vt 0.802068 0.459185
vt 0.682676 0.586046
vt 0.717287 0.606029
vn 0.0000 1.0000 -0.0000
vn -1.0000 0.0000 0.0000
vn 1.0000 0.0000 0.0000
vn 0.0000 0.0000 -1.0000
vn 0.0000 0.9848 0.1736
vn 0.0000 0.9397 0.3420
vn 0.0000 0.8660 0.5000
vn 0.0000 0.7274 0.6862
vn 0.0000 0.7071 0.7071
vn 0.0000 0.7660 0.6428
vn 0.0000 0.6862 0.7274
vn 0.0000 0.6428 0.7660
vn 0.0000 0.5000 0.8660
vn 0.0000 0.3420 0.9397
vn 0.0000 0.1736 0.9848
vn 0.0000 0.0000 1.0000
usemtl Material.001
s 1
f 27/1/1 28/2/1 46/3/1 45/4/1
f 9/5/1 10/6/1 34/7/1 33/8/1
f 44/9/2 25/10/2 27/11/2 45/12/2
f 11/13/1 12/14/1 36/15/1 35/16/1
f 15/17/1 16/18/1 38/19/1 37/20/1
f 21/21/1 22/22/1 42/23/1 41/24/1
f 3/25/1 4/26/1 30/27/1 29/28/1
f 24/29/1 25/30/1 44/31/1 43/32/1
f 6/33/1 7/34/1 32/35/1 31/36/1
f 18/37/1 19/38/1 40/39/1 39/40/1
f 42/41/2 22/42/2 24/43/2 43/44/2
f 40/45/2 19/46/2 21/47/2 41/48/2
f 46/49/3 28/50/3 26/51/3 49/52/3
f 12/53/2 15/54/2 37/55/2 36/56/2
f 10/57/2 11/58/2 35/59/2 34/60/2
f 7/61/2 9/62/2 33/63/2 32/64/2
f 4/65/2 6/66/2 31/67/2 30/68/2
f 3/69/2 29/70/2 48/71/2 47/72/2
f 23/73/2 27/11/2 25/10/2
f 20/74/2 24/43/2 22/42/2
f 17/75/2 21/47/2 19/46/2
f 14/76/2 18/77/2 16/78/2
f 13/79/2 15/54/2 12/53/2
f 8/80/2 11/58/2 10/57/2
f 5/81/2 9/62/2 7/61/2
f 2/82/2 6/66/2 4/65/2
f 3/69/2 47/72/2 1/83/2
f 38/84/2 16/78/2 18/77/2 39/85/2
f 47/72/2 48/71/2 60/86/2
f 47/72/2 60/86/2 50/87/2 1/83/2
f 49/52/3 26/51/3 59/88/3 61/89/3
f 69/90/4 77/91/4 49/92/4 61/93/4
f 45/94/4 46/95/4 44/96/4
f 43/97/4 44/96/4 42/98/4
f 41/99/4 42/98/4 40/100/4
f 39/101/4 40/100/4 38/102/4
f 37/103/4 38/102/4 36/104/4
f 35/105/4 36/104/4 34/106/4
f 33/107/4 34/106/4 32/108/4
f 31/109/4 32/108/4 30/110/4
f 29/111/4 30/110/4 48/112/4
f 60/113/4 48/112/4 70/114/4 62/115/4
f 62/115/4 70/114/4 71/116/4 63/117/4
f 63/117/4 71/116/4 72/118/4 64/119/4
f 64/119/4 72/118/4 73/120/4 65/121/4
f 65/121/4 73/120/4 74/122/4 66/123/4
f 66/123/4 74/122/4 75/124/4 67/125/4
f 67/125/4 75/124/4 76/126/4 68/127/4
f 68/127/4 76/126/4 77/91/4 69/90/4
f 48/112/4 30/110/4 70/114/4
f 32/108/4 71/116/4 70/114/4 30/110/4
f 34/106/4 72/118/4 71/116/4 32/108/4
f 36/104/4 73/120/4 72/118/4 34/106/4
f 38/102/4 74/122/4 73/120/4 36/104/4
f 40/100/4 75/124/4 74/122/4 38/102/4
f 42/98/4 76/126/4 75/124/4 40/100/4
f 44/96/4 77/91/4 76/126/4 42/98/4
f 49/92/4 77/91/4 44/96/4 46/95/4
usemtl Material.002
f 1/128/5 2/129/5 4/130/5 3/131/5
f 2/132/6 5/133/6 7/134/6 6/135/6
f 5/136/7 8/137/7 10/138/7 9/139/7
f 8/140/8 13/141/9 12/142/10 11/143/10
f 13/144/9 14/145/11 16/146/12 15/147/12
f 14/148/13 17/149/13 19/150/13 18/151/13
f 17/152/14 20/153/14 22/154/14 21/155/14
f 20/156/15 23/157/15 25/158/15 24/159/15
f 23/160/16 26/161/16 28/162/16 27/163/16
f 23/164/9 20/165/9 57/166/9 58/167/9
f 2/168/9 1/169/9 50/170/9 51/171/9
f 8/172/8 5/173/9 52/174/9 53/175/9
f 14/176/11 13/177/9 54/178/9 55/179/9
f 20/165/9 17/180/9 56/181/9 57/166/9
f 26/182/9 23/164/9 58/167/9 59/183/9
f 5/173/9 2/168/9 51/171/9 52/174/9
f 13/177/9 8/172/8 53/175/9 54/178/9
f 17/180/9 14/176/11 55/179/9 56/181/9
