# Blender v2.80 (sub 75) OBJ File: ''
# www.blender.org
o Cube_Cube.001
v -5.000000 -10.000000 10.000000
v -5.000000 1.000000 10.000000
v -5.000000 -10.000000 -10.000000
v -5.000000 1.000000 -10.000000
v 5.000000 -10.000000 10.000000
v 5.000000 1.000000 10.000000
v 5.000000 -10.000000 -10.000000
v 5.000000 1.000000 -10.000000
v -4.000000 1.000000 9.000000
v -4.000000 1.000000 -9.000000
v 4.000000 1.000000 9.000000
v 4.000000 1.000000 -9.000000
v -4.000000 -9.000000 9.000000
v -4.000000 -9.000000 -9.000000
v 4.000000 -9.000000 9.000000
v 4.000000 -9.000000 -9.000000
vt 0.458333 0.416667
vt 0.229167 0.416667
vt 0.229167 0.000000
vt 0.458333 0.000000
vt 0.666667 0.229167
vt 0.666667 0.000000
vt 0.875000 0.000000
vt 0.875000 0.229167
vt 0.229167 0.416667
vt 0.000000 0.416667
vt 0.000000 0.000000
vt 0.229167 0.000000
vt 0.791667 0.645833
vt 0.791667 0.416667
vt 1.000000 0.416667
vt 1.000000 0.645833
vt 0.000000 0.416667
vt 0.208333 0.416667
vt 0.208333 0.833333
vt 0.000000 0.833333
vt 0.666667 0.416667
vt 0.458333 0.416667
vt 0.479167 0.395833
vt 0.645833 0.395833
vt 0.666667 0.000000
vt 0.645833 0.020833
vt 0.458333 0.000000
vt 0.479167 0.020833
vt 0.416667 0.791667
vt 0.416667 0.416667
vt 0.625000 0.416667
vt 0.625000 0.791667
vt 0.208333 0.791667
vt 0.208333 0.416667
vt 0.416667 0.416667
vt 0.416667 0.791667
vt 0.791667 0.645833
vt 0.958333 0.645833
vt 0.958333 0.854167
vt 0.791667 0.854167
vt 0.208333 0.791667
vt 0.375000 0.791667
vt 0.375000 1.000000
vt 0.208333 1.000000
vt 0.625000 0.416667
vt 0.791667 0.416667
vt 0.791667 0.791667
vt 0.625000 0.791667
vn -1.0000 0.0000 0.0000
vn 0.0000 0.0000 -1.0000
vn 1.0000 0.0000 0.0000
vn 0.0000 0.0000 1.0000
vn 0.0000 -1.0000 0.0000
vn 0.0000 1.0000 0.0000
s 1
f 1/1/1 2/2/1 4/3/1 3/4/1
f 3/5/2 4/6/2 8/7/2 7/8/2
f 7/9/3 8/10/3 6/11/3 5/12/3
f 5/13/4 6/14/4 2/15/4 1/16/4
f 3/17/5 7/18/5 5/19/5 1/20/5
f 8/21/6 4/22/6 10/23/6 12/24/6
f 6/25/6 8/21/6 12/24/6 11/26/6
f 4/22/6 2/27/6 9/28/6 10/23/6
f 2/27/6 6/25/6 11/26/6 9/28/6
f 11/29/1 12/30/1 16/31/1 15/32/1
f 10/33/3 9/34/3 13/35/3 14/36/3
f 9/37/2 11/38/2 15/39/2 13/40/2
f 12/41/4 10/42/4 14/43/4 16/44/4
f 13/45/6 15/46/6 16/47/6 14/48/6
