# Blender v2.80 (sub 75) OBJ File: ''
# www.blender.org
g Triangleramp
v -1.000000 -0.000000 1.000000
v -1.000000 0.000000 -1.000000
v 1.000000 0.000000 -1.000000
v 1.000000 -0.000000 1.000000
v -1.000000 1.000000 0.000000
v 1.000000 1.000000 0.000000
vt 0.853882 0.481144
vt 0.383023 0.010285
vt 0.853882 0.010285
vt 0.356469 0.512089
vt 0.023521 0.982948
vt 0.023522 0.512089
vt 0.357314 0.012128
vt 0.024366 0.482987
vt 0.024366 0.012128
vt 0.377527 0.603653
vt 0.710475 0.603653
vt 0.710475 0.936601
vt 0.376902 0.640781
vt 0.709849 0.973728
vt 0.376902 0.973728
vt 0.383023 0.481144
vt 0.356469 0.982948
vt 0.357314 0.482987
vn 0.0000 -1.0000 -0.0000
vn 0.0000 0.7071 -0.7071
vn 0.0000 0.7071 0.7071
vn 1.0000 0.0000 0.0000
vn -1.0000 0.0000 0.0000
s 1
f 2/1/1 4/2/1 1/3/1
f 5/4/2 3/5/2 2/6/2
f 1/7/3 6/8/3 5/9/3
f 3/10/4 6/11/4 4/12/4
f 2/13/5 1/14/5 5/15/5
f 2/1/1 3/16/1 4/2/1
f 5/4/2 6/17/2 3/5/2
f 1/7/3 4/18/3 6/8/3
