# Blender v2.76 (sub 0) OBJ File: ''
# www.blender.org
o Icosphere
v 0.000000 -1.000000 0.000000
v 0.723607 -0.447220 0.525725
v -0.276388 -0.447220 0.850649
v -0.894426 -0.447216 0.000000
v -0.276388 -0.447220 -0.850649
v 0.723607 -0.447220 -0.525725
v 0.276388 0.447220 0.850649
v -0.723607 0.447220 0.525725
v -0.723607 0.447220 -0.525725
v 0.276388 0.447220 -0.850649
v 0.894426 0.447216 0.000000
v 0.000000 1.000000 0.000000
v -0.162456 -0.850654 0.499995
v 0.425323 -0.850654 0.309011
v 0.262869 -0.525738 0.809012
v 0.850648 -0.525736 0.000000
v 0.425323 -0.850654 -0.309011
v -0.525730 -0.850652 0.000000
v -0.688189 -0.525736 0.499997
v -0.162456 -0.850654 -0.499995
v -0.688189 -0.525736 -0.499997
v 0.262869 -0.525738 -0.809012
v 0.951058 0.000000 0.309013
v 0.951058 0.000000 -0.309013
v 0.000000 0.000000 1.000000
v 0.587786 0.000000 0.809017
v -0.951058 0.000000 0.309013
v -0.587786 0.000000 0.809017
v -0.587786 0.000000 -0.809017
v -0.951058 0.000000 -0.309013
v 0.587786 0.000000 -0.809017
v 0.000000 0.000000 -1.000000
v 0.688189 0.525736 0.499997
v -0.262869 0.525738 0.809012
v -0.850648 0.525736 0.000000
v -0.262869 0.525738 -0.809012
v 0.688189 0.525736 -0.499997
v 0.162456 0.850654 0.499995
v 0.525730 0.850652 0.000000
v -0.425323 0.850654 0.309011
v -0.425323 0.850654 -0.309011
v 0.162456 0.850654 -0.499995
v -0.162456 -0.850654 0.499995
v 0.425323 -0.850654 0.309011
v 0.723607 -0.447220 0.525725
v 0.262869 -0.525738 0.809012
v 0.262869 -0.525738 0.809012
v -0.276388 -0.447220 0.850649
v 0.850648 -0.525736 0.000000
v -0.688189 -0.525736 -0.499997
v -0.688189 -0.525736 -0.499997
v 0.262869 -0.525738 -0.809012
v 0.262869 -0.525738 -0.809012
v 0.262869 -0.525738 -0.809012
v 0.723607 -0.447220 -0.525725
v -0.951058 0.000000 0.309013
v -0.951058 0.000000 0.309013
v -0.894426 -0.447216 0.000000
v -0.262869 0.525738 0.809012
v -0.262869 0.525738 0.809012
v -0.723607 0.447220 0.525725
v -0.850648 0.525736 0.000000
v -0.723607 0.447220 -0.525725
v 0.000000 1.000000 0.000000
v 0.000000 1.000000 0.000000
v -0.425323 0.850654 -0.309011
v -0.425323 0.850654 -0.309011
v 0.000000 0.000000 1.000000
v 0.000000 0.000000 1.000000
v -0.951058 0.000000 -0.309013
v -0.951058 0.000000 -0.309013
v 0.688189 0.525736 0.499997
v 0.688189 0.525736 -0.499997
v 0.162456 0.850654 0.499995
v 0.162456 0.850654 0.499995
v -0.262869 0.525738 -0.809012
v -0.262869 0.525738 -0.809012
v -0.262869 0.525738 -0.809012
v -0.425323 0.850654 0.309011
v -0.425323 0.850654 0.309011
v 0.000000 0.000000 -1.000000
v -0.587786 0.000000 -0.809017
v 0.587786 0.000000 0.809017
v 0.587786 0.000000 0.809017
v 0.587786 0.000000 -0.809017
v -0.587786 0.000000 0.809017
v -0.162456 -0.850654 -0.499995
v -0.525730 -0.850652 0.000000
vt 0.403766 0.762896
vt 0.407267 0.861587
vt 0.312978 0.801751
vt 0.425931 0.958561
vt 0.509649 0.906183
vt 0.305853 0.775752
vt 0.356466 0.676206
vt 0.467565 0.687518
vt 0.497078 0.795220
vt 0.763623 0.455406
vt 0.661883 0.446591
vt 0.735157 0.357330
vt 0.207128 0.773370
vt 0.214130 0.871875
vt 0.117775 0.815423
vt 0.296376 0.597838
vt 0.244951 0.682146
vt 0.199197 0.580275
vt 0.793001 0.858695
vt 0.706614 0.810843
vt 0.806481 0.760864
vt 0.560706 0.414874
vt 0.449362 0.423841
vt 0.512189 0.314253
vt 0.844835 0.393486
vt 0.135681 0.705194
vt 0.346654 0.335204
vt 0.248040 0.340469
vt 0.306180 0.245125
vt 0.889109 0.835988
vt 0.630172 0.339847
vt 0.884233 0.260673
vt 0.785787 0.258142
vt 0.851092 0.167938
vt 0.149792 0.330479
vt 0.057463 0.365515
vt 0.083817 0.256996
vt 0.431218 0.521896
vt 0.520465 0.479621
vt 0.502833 0.589893
vt 0.514335 0.205496
vt 0.463891 0.121379
vt 0.577864 0.137388
vt 0.688127 0.270808
vt 0.595613 0.246797
vt 0.679375 0.176529
vt 0.657168 0.082918
vt 0.577765 0.028593
vt 0.483595 0.083076
vt 0.268134 0.064878
vt 0.252312 0.162356
vt 0.167098 0.112446
vt 0.607147 0.550028
vt 0.584067 0.646046
vt 0.194538 0.242445
vt 0.681948 0.632947
vt 0.929513 0.088873
vt 0.958776 0.196320
vt 0.771274 0.121587
vt 0.685252 0.082028
vt 0.772905 0.228646
vt 0.594212 0.247997
vt 0.414521 0.232075
vt 0.912854 0.726866
vt 0.348939 0.141961
vt 0.031266 0.744800
vt 0.054584 0.648839
vt 0.971137 0.306996
vt 0.846371 0.351583
vt 0.959178 0.922943
vt 0.848837 0.940148
vt 0.713264 0.699367
vt 0.391140 0.570053
vt 0.304632 0.499430
vt 0.136392 0.593522
vt 0.133851 0.670835
vt 0.955371 0.328772
vt 0.117063 0.927094
vt 0.850661 0.508823
vt 0.596043 0.743481
vt 0.584299 0.841534
vt 0.575595 0.715810
vt 0.737164 0.940148
vt 0.696892 0.835989
vt 0.626824 0.922944
vt 0.308303 0.913326
vt 0.229259 0.854129
vt 0.745188 0.555851
vn 0.000000 -1.000000 0.000000
vn 0.409900 -0.877700 0.248300
vn 0.088900 -0.821700 0.562900
vn 0.700200 -0.661700 0.268000
vn 0.685800 -0.727700 0.000000
vn -0.402700 -0.821700 0.403100
vn -0.524000 -0.847900 0.080300
vn 0.012400 -0.924300 -0.381500
vn 0.425300 -0.850600 -0.309000
vn 0.716200 -0.382200 0.583900
vn 0.957600 -0.288000 0.000000
vn 0.951000 0.000000 0.309000
vn -0.334000 -0.382200 0.861600
vn 0.171600 -0.259400 0.950400
vn -0.071500 -0.115700 0.990700
vn -0.851900 -0.523700 0.000000
vn -0.688200 -0.525700 0.500000
vn -0.850800 -0.259400 0.456900
vn -0.276400 -0.447200 -0.850600
vn -0.697400 -0.259400 -0.668000
vn -0.524500 -0.115700 -0.843500
vn 0.778300 -0.273000 -0.565400
vn 0.534600 -0.330400 -0.777900
vn 0.641100 0.042200 -0.766200
vn 0.681600 -0.232400 0.693700
vn -0.530600 0.042200 0.846500
vn -0.992100 -0.125600 0.000000
vn -0.986700 0.135900 0.089400
vn -0.966100 0.136900 -0.218700
vn -0.071500 -0.115700 -0.990700
vn 0.951000 0.000000 -0.309000
vn 0.276400 0.447200 0.850600
vn 0.701700 0.391800 0.595000
vn 0.082500 0.734500 0.673600
vn -0.720800 0.574100 0.388500
vn -0.471300 0.661700 0.583100
vn -0.597200 0.674600 0.433900
vn -0.700200 0.661700 -0.268000
vn -0.660000 0.739800 -0.130500
vn -0.562800 0.821700 -0.089400
vn 0.276400 0.447200 -0.850600
vn 0.007000 0.505700 -0.862600
vn 0.162500 0.850600 -0.500000
vn 0.894400 0.447200 0.000000
vn 0.655900 0.645300 -0.391400
vn 0.525700 0.850600 0.000000
vn 0.084400 0.961900 -0.259900
vn -0.148400 0.877000 -0.456900
vn -0.187600 0.794600 -0.577300
vn -0.512700 0.505700 -0.693700
vn -0.716200 0.382200 -0.583900
vn -0.471300 0.661700 -0.583100
vn -0.366700 0.924300 0.106100
vn -0.221000 0.961900 0.160600
vn -0.917400 0.391800 0.068800
vn -0.102400 0.943500 0.315100
vn -0.187600 0.794600 0.577300
vn -0.063500 0.622900 0.779700
vn 0.388600 0.877000 0.282400
vn 0.268000 0.943500 0.194700
vn 0.610600 0.739800 0.282400
vn 0.697400 0.259400 -0.668000
vn 0.143700 0.232400 -0.961900
vn -0.303500 0.187600 -0.934100
vn -0.681600 0.232400 -0.693700
vn -0.419800 0.259400 0.869700
vn -0.681600 0.232400 0.693800
vn -0.024700 0.330400 0.943500
vn 0.585600 0.221700 0.779700
vn 0.303500 -0.187600 -0.934100
vn 0.105700 -0.402200 -0.909400
vn -0.794600 -0.187600 -0.577300
vn -0.822600 -0.505700 -0.259900
vn -0.889700 -0.330400 -0.315100
vn -0.802600 0.125600 0.583100
vn -0.794600 -0.187600 0.577300
vn 0.306600 0.125600 0.943500
vn 0.303500 -0.187600 0.934100
vn 0.512700 -0.505700 0.693700
vn 0.471300 -0.661700 -0.583100
vn 0.597200 -0.674600 -0.433900
vn 0.187600 -0.794600 -0.577300
vn -0.329200 -0.734500 -0.593400
vn -0.457200 -0.739800 -0.493500
vn -0.491100 -0.794600 -0.356800
vn 0.079800 -0.739800 0.668000
vn -0.038500 -0.661700 0.748800
vn 0.471300 -0.661700 0.583100
s 1
f 1/1/1 44/2/2 43/3/3
f 45/4/4 44/2/2 49/5/5
f 1/1/1 13/6/6 88/7/7
f 1/1/1 88/7/7 87/8/8
f 1/1/1 87/8/8 17/9/9
f 2/10/10 16/11/11 23/12/12
f 48/13/13 46/14/14 68/15/15
f 58/16/16 19/17/17 56/18/18
f 5/19/19 50/20/20 82/21/21
f 6/22/22 52/23/23 85/24/24
f 2/10/10 23/12/12 84/25/25
f 48/13/13 68/15/15 86/26/26
f 4/27/27 57/28/28 70/29/29
f 5/19/19 82/21/21 32/30/30
f 6/22/22 85/24/24 24/31/31
f 7/32/32 72/33/33 74/34/34
f 8/35/35 59/36/36 79/37/37
f 9/38/38 62/39/39 66/40/40
f 10/41/41 76/42/42 42/43/43
f 11/44/44 73/45/45 39/46/46
f 39/46/46 42/43/43 64/47/47
f 39/46/46 73/45/45 42/43/43
f 73/45/45 10/41/41 42/43/43
f 42/43/43 67/48/48 64/47/47
f 42/43/43 78/49/49 67/48/48
f 77/50/50 63/51/51 41/52/52
f 66/40/40 80/53/53 65/54/54
f 66/40/40 62/39/39 80/53/53
f 35/55/55 8/35/35 79/37/37
f 80/53/53 75/56/56 65/54/54
f 40/57/57 60/58/58 74/34/34
f 60/58/58 7/32/32 74/34/34
f 38/59/59 39/46/46 12/60/60
f 38/59/59 33/61/61 39/46/46
f 33/61/61 11/44/44 39/46/46
f 24/31/31 73/45/45 11/44/44
f 24/31/31 85/24/24 37/62/62
f 85/24/24 10/41/41 37/62/62
f 81/63/63 76/42/42 10/41/41
f 32/30/30 82/21/21 36/64/64
f 29/65/65 63/51/51 77/50/50
f 70/29/29 35/55/55 63/51/51
f 70/29/29 57/28/28 35/55/55
f 57/28/28 8/35/35 35/55/55
f 86/26/26 34/66/66 61/67/67
f 86/26/26 68/15/15 34/66/66
f 69/68/68 7/32/32 60/58/58
f 83/69/69 72/33/33 7/32/32
f 83/69/69 23/12/12 72/33/33
f 23/12/12 11/44/44 72/33/33
f 85/24/24 81/63/63 10/41/41
f 31/70/70 53/71/71 32/30/30
f 53/71/71 5/19/19 32/30/30
f 29/65/65 70/29/29 63/51/51
f 82/21/21 50/20/20 71/72/72
f 51/73/73 58/16/16 30/74/74
f 27/75/75 86/26/26 61/67/67
f 56/18/18 19/17/17 28/76/76
f 19/17/17 48/13/13 86/26/26
f 25/77/77 83/69/69 7/32/32
f 68/15/15 46/14/14 26/78/78
f 47/79/79 2/10/10 84/25/25
f 23/12/12 24/31/31 11/44/44
f 23/12/12 16/11/11 24/31/31
f 16/11/11 6/22/22 24/31/31
f 17/9/9 54/80/80 55/81/81
f 17/9/9 87/8/8 22/82/82
f 20/83/83 5/19/19 53/71/71
f 20/83/83 21/84/84 5/19/19
f 20/83/83 18/85/85 21/84/84
f 88/7/7 58/16/16 51/73/73
f 88/7/7 19/17/17 58/16/16
f 88/7/7 13/6/6 19/17/17
f 13/6/6 48/13/13 19/17/17
f 49/5/5 17/9/9 55/81/81
f 49/5/5 44/2/2 17/9/9
f 44/2/2 1/1/1 17/9/9
f 43/3/3 15/86/86 3/87/87
f 43/3/3 44/2/2 15/86/86
f 14/88/88 2/10/10 47/79/79
