# Blender v2.76 (sub 0) OBJ File: ''
# www.blender.org
o Icosphere
v 0.000000 -1.000000 0.000000
v 0.723607 -0.447220 0.525725
v -0.276388 -0.447220 0.850649
v -0.894426 -0.447216 0.000000
v -0.276388 -0.447220 -0.850649
v 0.723607 -0.447220 -0.525725
v 0.276388 0.447220 0.850649
v -0.723607 0.447220 0.525725
v -0.723607 0.447220 -0.525725
v 0.276388 0.447220 -0.850649
v 0.894426 0.447216 0.000000
v 0.000000 1.000000 0.000000
v -0.162456 -0.850654 0.499995
v 0.425323 -0.850654 0.309011
v 0.262869 -0.525738 0.809012
v 0.850648 -0.525736 0.000000
v 0.425323 -0.850654 -0.309011
v -0.525730 -0.850652 0.000000
v -0.688189 -0.525736 0.499997
v -0.162456 -0.850654 -0.499995
v -0.688189 -0.525736 -0.499997
v 0.262869 -0.525738 -0.809012
v 0.951058 0.000000 0.309013
v 0.951058 0.000000 -0.309013
v 0.000000 0.000000 1.000000
v 0.587786 0.000000 0.809017
v -0.951058 0.000000 0.309013
v -0.587786 0.000000 0.809017
v -0.587786 0.000000 -0.809017
v -0.951058 0.000000 -0.309013
v 0.587786 0.000000 -0.809017
v 0.000000 0.000000 -1.000000
v 0.688189 0.525736 0.499997
v -0.262869 0.525738 0.809012
v -0.850648 0.525736 0.000000
v -0.262869 0.525738 -0.809012
v 0.688189 0.525736 -0.499997
v 0.162456 0.850654 0.499995
v 0.525730 0.850652 0.000000
v -0.425323 0.850654 0.309011
v -0.425323 0.850654 -0.309011
v 0.162456 0.850654 -0.499995
vt 0.403766 0.762896
vt 0.407267 0.861587
vt 0.312978 0.801751
vt 0.425931 0.958561
vt 0.509649 0.906183
vt 0.305853 0.775752
vt 0.356466 0.676206
vt 0.467565 0.687518
vt 0.497078 0.795220
vt 0.763623 0.455406
vt 0.661883 0.446591
vt 0.735157 0.357330
vt 0.207128 0.773370
vt 0.214130 0.871875
vt 0.117775 0.815423
vt 0.296376 0.597838
vt 0.244951 0.682146
vt 0.199197 0.580275
vt 0.793001 0.858695
vt 0.706614 0.810843
vt 0.806481 0.760864
vt 0.560706 0.414874
vt 0.449362 0.423841
vt 0.512189 0.314253
vt 0.844835 0.393486
vt 0.135681 0.705194
vt 0.346654 0.335204
vt 0.248040 0.340469
vt 0.306180 0.245125
vt 0.889109 0.835988
vt 0.630172 0.339847
vt 0.884233 0.260673
vt 0.785787 0.258142
vt 0.851092 0.167938
vt 0.149792 0.330479
vt 0.057463 0.365515
vt 0.083817 0.256996
vt 0.431218 0.521896
vt 0.520465 0.479621
vt 0.502833 0.589893
vt 0.514335 0.205496
vt 0.463891 0.121379
vt 0.577864 0.137388
vt 0.688127 0.270808
vt 0.595613 0.246797
vt 0.679375 0.176529
vt 0.657168 0.082918
vt 0.577765 0.028593
vt 0.483595 0.083076
vt 0.268134 0.064878
vt 0.252312 0.162356
vt 0.167098 0.112446
vt 0.607147 0.550028
vt 0.584067 0.646046
vt 0.194538 0.242445
vt 0.681948 0.632947
vt 0.929513 0.088873
vt 0.958776 0.196320
vt 0.771274 0.121587
vt 0.685252 0.082028
vt 0.772905 0.228646
vt 0.594212 0.247997
vt 0.414521 0.232075
vt 0.912854 0.726866
vt 0.348939 0.141961
vt 0.031266 0.744800
vt 0.054584 0.648839
vt 0.971137 0.306996
vt 0.846371 0.351583
vt 0.959178 0.922943
vt 0.848837 0.940148
vt 0.713264 0.699367
vt 0.391140 0.570053
vt 0.304632 0.499430
vt 0.136392 0.593522
vt 0.133851 0.670835
vt 0.955371 0.328772
vt 0.117063 0.927094
vt 0.850661 0.508823
vt 0.596043 0.743481
vt 0.584299 0.841534
vt 0.575595 0.715810
vt 0.737164 0.940148
vt 0.696892 0.835989
vt 0.626824 0.922944
vt 0.308303 0.913326
vt 0.229259 0.854129
vt 0.745188 0.555851
vn 0.000000 -1.000000 0.000000
vn 0.425300 -0.850600 0.309000
vn -0.162500 -0.850600 0.500000
vn 0.723600 -0.447200 0.525700
vn 0.850600 -0.525700 0.000000
vn -0.525700 -0.850600 0.000000
vn -0.162500 -0.850600 -0.500000
vn 0.425300 -0.850600 -0.309000
vn 0.951000 0.000000 0.309000
vn -0.276400 -0.447200 0.850600
vn 0.262900 -0.525700 0.809000
vn 0.000000 0.000000 1.000000
vn -0.894400 -0.447200 0.000000
vn -0.688200 -0.525700 0.500000
vn -0.951000 0.000000 0.309000
vn -0.276400 -0.447200 -0.850600
vn -0.688200 -0.525700 -0.500000
vn -0.587800 0.000000 -0.809000
vn 0.723600 -0.447200 -0.525700
vn 0.262900 -0.525700 -0.809000
vn 0.587800 0.000000 -0.809000
vn 0.587800 0.000000 0.809000
vn -0.587800 0.000000 0.809000
vn -0.951000 0.000000 -0.309000
vn 0.000000 0.000000 -1.000000
vn 0.951000 0.000000 -0.309000
vn 0.276400 0.447200 0.850600
vn 0.688200 0.525700 0.500000
vn 0.162500 0.850600 0.500000
vn -0.723600 0.447200 0.525700
vn -0.262900 0.525700 0.809000
vn -0.425300 0.850600 0.309000
vn -0.723600 0.447200 -0.525700
vn -0.850600 0.525700 0.000000
vn -0.425300 0.850600 -0.309000
vn 0.276400 0.447200 -0.850600
vn -0.262900 0.525700 -0.809000
vn 0.162500 0.850600 -0.500000
vn 0.894400 0.447200 0.000000
vn 0.688200 0.525700 -0.500000
vn 0.525700 0.850600 0.000000
vn 0.000000 1.000000 0.000000
s 1
f 1/1/1 14/2/2 13/3/3
f 2/4/4 14/2/2 16/5/5
f 1/1/1 13/6/3 18/7/6
f 1/1/1 18/7/6 20/8/7
f 1/1/1 20/8/7 17/9/8
f 2/10/4 16/11/5 23/12/9
f 3/13/10 15/14/11 25/15/12
f 4/16/13 19/17/14 27/18/15
f 5/19/16 21/20/17 29/21/18
f 6/22/19 22/23/20 31/24/21
f 2/10/4 23/12/9 26/25/22
f 3/13/10 25/15/12 28/26/23
f 4/27/13 27/28/15 30/29/24
f 5/19/16 29/21/18 32/30/25
f 6/22/19 31/24/21 24/31/26
f 7/32/27 33/33/28 38/34/29
f 8/35/30 34/36/31 40/37/32
f 9/38/33 35/39/34 41/40/35
f 10/41/36 36/42/37 42/43/38
f 11/44/39 37/45/40 39/46/41
f 39/46/41 42/43/38 12/47/42
f 39/46/41 37/45/40 42/43/38
f 37/45/40 10/41/36 42/43/38
f 42/43/38 41/48/35 12/47/42
f 42/43/38 36/49/37 41/48/35
f 36/50/37 9/51/33 41/52/35
f 41/40/35 40/53/32 12/54/42
f 41/40/35 35/39/34 40/53/32
f 35/55/34 8/35/30 40/37/32
f 40/53/32 38/56/29 12/54/42
f 40/57/32 34/58/31 38/34/29
f 34/58/31 7/32/27 38/34/29
f 38/59/29 39/46/41 12/60/42
f 38/59/29 33/61/28 39/46/41
f 33/61/28 11/44/39 39/46/41
f 24/31/26 37/45/40 11/44/39
f 24/31/26 31/24/21 37/62/40
f 31/24/21 10/41/36 37/62/40
f 32/63/25 36/42/37 10/41/36
f 32/30/25 29/21/18 36/64/37
f 29/65/18 9/51/33 36/50/37
f 30/29/24 35/55/34 9/51/33
f 30/29/24 27/28/15 35/55/34
f 27/28/15 8/35/30 35/55/34
f 28/26/23 34/66/31 8/67/30
f 28/26/23 25/15/12 34/66/31
f 25/68/12 7/32/27 34/58/31
f 26/69/22 33/33/28 7/32/27
f 26/69/22 23/12/9 33/33/28
f 23/12/9 11/44/39 33/33/28
f 31/24/21 32/63/25 10/41/36
f 31/70/21 22/71/20 32/30/25
f 22/71/20 5/19/16 32/30/25
f 29/65/18 30/29/24 9/51/33
f 29/21/18 21/20/17 30/72/24
f 21/73/17 4/16/13 30/74/24
f 27/75/15 28/26/23 8/67/30
f 27/18/15 19/17/14 28/76/23
f 19/17/14 3/13/10 28/26/23
f 25/77/12 26/69/22 7/32/27
f 25/15/12 15/14/11 26/78/22
f 15/79/11 2/10/4 26/25/22
f 23/12/9 24/31/26 11/44/39
f 23/12/9 16/11/5 24/31/26
f 16/11/5 6/22/19 24/31/26
f 17/9/8 22/80/20 6/81/19
f 17/9/8 20/8/7 22/82/20
f 20/83/7 5/19/16 22/71/20
f 20/83/7 21/84/17 5/19/16
f 20/83/7 18/85/6 21/84/17
f 18/7/6 4/16/13 21/73/17
f 18/7/6 19/17/14 4/16/13
f 18/7/6 13/6/3 19/17/14
f 13/6/3 3/13/10 19/17/14
f 16/5/5 17/9/8 6/81/19
f 16/5/5 14/2/2 17/9/8
f 14/2/2 1/1/1 17/9/8
f 13/3/3 15/86/11 3/87/10
f 13/3/3 14/2/2 15/86/11
f 14/88/2 2/10/4 15/79/11
