# Blender v2.80 (sub 75) OBJ File: ''
# www.blender.org
g little_ship
v 0.002839 0.216819 0.008113
v 0.002839 -0.021341 0.008113
v 0.002839 0.216819 0.013791
v 0.002839 -0.021341 0.013791
v 0.021409 -0.020640 -0.084654
v 0.015593 -0.024561 -0.083891
v 0.021409 -0.009907 -0.086800
v 0.030545 -0.012671 -0.026270
v 0.031202 -0.012671 0.008232
v 0.028856 -0.023944 0.007317
v 0.028216 -0.023944 -0.026270
v 0.025970 -0.023001 -0.058976
v 0.029458 -0.011732 -0.058976
v 0.024198 -0.026288 -0.058976
v 0.029458 -0.012000 0.034574
v 0.023489 -0.011340 0.053774
v 0.019924 -0.023062 0.050374
v 0.026078 -0.023814 0.031845
v 0.011187 -0.021442 0.069691
v 0.014863 -0.009488 0.073882
v 0.000000 -0.008055 0.092688
v 0.000000 -0.020184 0.087486
v 0.019461 -0.035213 0.007116
v 0.018838 -0.035213 -0.025600
v 0.013419 -0.035144 0.046938
v 0.017093 -0.035210 0.029469
v 0.000000 -0.031327 0.075104
v 0.007724 -0.033091 0.061836
v 0.018044 -0.034634 -0.054158
v 0.000000 -0.038527 0.056054
v 0.000000 -0.040722 0.041652
v 0.000000 -0.041437 0.025521
v 0.000000 -0.041589 0.005487
v -0.000000 -0.041170 -0.025773
v -0.000000 -0.038994 -0.054284
v -0.000000 -0.012671 -0.026270
v 0.000000 -0.012671 0.008232
v 0.000000 -0.011340 0.053774
v 0.000000 -0.009488 0.073882
v 0.000000 -0.012000 0.034574
v -0.000000 -0.011732 -0.058976
v -0.000000 -0.009907 -0.086800
v -0.000000 -0.034056 -0.082045
v 0.015593 -0.034056 -0.082045
v -0.000000 -0.020640 -0.084654
v 0.000000 0.004175 0.010617
v -0.000000 0.004323 -0.089266
v 0.000000 0.211429 0.009943
v 0.000000 0.006078 0.026449
v 0.000000 0.180547 0.013007
v 0.000000 -0.010344 0.088859
v 0.001810 0.002246 -0.093090
v 0.001810 0.002246 0.012298
v 0.001810 0.005866 -0.093090
v 0.001810 0.005866 0.012298
v 0.009181 -0.000472 -0.058326
v 0.016150 -0.017192 -0.058326
v 0.009181 -0.000472 -0.007763
v 0.016150 -0.017192 -0.007763
v 0.008975 -0.007690 0.031140
v 0.013076 -0.012851 0.028724
v 0.008975 -0.007690 0.042180
v 0.013076 -0.012851 0.044595
v 0.004475 -0.034090 -0.042579
v 0.002434 -0.117097 -0.034353
v 0.004475 -0.034090 0.008817
v 0.002434 -0.117169 -0.008300
v 0.000000 -0.111841 0.011146
v 0.000000 -0.034090 0.037685
v -0.002839 -0.021341 0.008113
v -0.002839 0.216819 0.008113
v -0.002839 -0.021341 0.013791
v -0.002839 0.216819 0.013791
v -0.015593 -0.024561 -0.083891
v -0.021409 -0.020640 -0.084654
v -0.021409 -0.009907 -0.086800
v -0.030545 -0.012671 -0.026270
v -0.028216 -0.023944 -0.026270
v -0.028856 -0.023944 0.007317
v -0.031202 -0.012671 0.008232
v -0.029458 -0.011732 -0.058976
v -0.025970 -0.023001 -0.058976
v -0.024198 -0.026288 -0.058976
v -0.029458 -0.012000 0.034574
v -0.026078 -0.023814 0.031845
v -0.019924 -0.023062 0.050374
v -0.023489 -0.011340 0.053774
v -0.011187 -0.021442 0.069691
v -0.014863 -0.009488 0.073882
v -0.018838 -0.035213 -0.025600
v -0.019461 -0.035213 0.007116
v -0.017093 -0.035210 0.029469
v -0.013419 -0.035144 0.046938
v -0.007724 -0.033091 0.061836
v -0.018044 -0.034634 -0.054158
v -0.015593 -0.034056 -0.082045
v 0.000000 0.004175 0.010617
v 0.000000 0.211429 0.009943
v -0.000000 0.004323 -0.089266
v 0.000000 0.006078 0.026449
v 0.000000 -0.010344 0.088859
v 0.000000 0.180547 0.013007
v -0.001810 0.002246 0.012298
v -0.001810 0.002246 -0.093090
v -0.001810 0.005866 0.012298
v -0.001810 0.005866 -0.093090
v -0.016150 -0.017192 -0.058326
v -0.009181 -0.000472 -0.058326
v -0.016150 -0.017192 -0.007763
v -0.009181 -0.000472 -0.007763
v -0.013076 -0.012851 0.028724
v -0.008975 -0.007690 0.031140
v -0.013076 -0.012851 0.044595
v -0.008975 -0.007690 0.042180
v -0.002434 -0.117097 -0.034353
v -0.004475 -0.034090 -0.042579
v -0.002434 -0.117169 -0.008300
v -0.004475 -0.034090 0.008817
vt 0.083429 0.785702
vt 0.065495 0.803635
vt 0.065495 0.785702
vt 0.047562 0.785702
vt 0.029626 0.033410
vt 0.047560 0.033410
vt 0.101362 0.033410
vt 0.083428 0.033410
vt 0.319482 0.680950
vt 0.227920 0.741388
vt 0.202729 0.680950
vt 0.556296 0.073600
vt 0.637727 0.115230
vt 0.556296 0.115230
vt 0.918683 0.134468
vt 0.936043 0.025502
vt 0.934272 0.134595
vt 0.521546 0.345737
vt 0.637727 0.476970
vt 0.519047 0.476970
vt 0.983527 0.269886
vt 0.936221 0.407681
vt 0.935647 0.270445
vt 0.983377 0.133666
vt 0.869351 0.038628
vt 0.875529 0.154867
vt 0.978700 0.522403
vt 0.916364 0.585330
vt 0.929306 0.507255
vt 0.983527 0.412917
vt 0.898200 0.670459
vt 0.964853 0.605160
vt 0.947161 0.695029
vt 0.872296 0.754186
vt 0.914339 0.789956
vt 0.875178 0.272946
vt 0.861857 0.568405
vt 0.870550 0.497351
vt 0.836482 0.694233
vt 0.852699 0.632482
vt 0.798459 0.152336
vt 0.804594 0.035235
vt 0.810937 0.613179
vt 0.800498 0.552553
vt 0.794982 0.485016
vt 0.876601 0.406681
vt 0.792310 0.401254
vt 0.793446 0.271105
vt 0.637727 0.221289
vt 0.525680 0.221288
vt 0.581194 0.727073
vt 0.637727 0.650264
vt 0.637726 0.727073
vt 0.525680 0.577193
vt 0.637727 0.577193
vt 0.637727 0.345737
vt 0.548384 0.650264
vt 0.637726 0.798808
vt 0.983371 0.133685
vt 0.936037 0.025521
vt 0.934266 0.134614
vt 0.719158 0.073600
vt 0.637727 0.073600
vt 0.697036 0.058405
vt 0.637727 0.021616
vt 0.578417 0.058405
vt 0.578417 0.021616
vt 0.232538 0.021490
vt 0.535342 0.021939
vt 0.234583 0.649797
vt 0.417445 0.878288
vt 0.418030 0.347806
vt 0.602192 0.942666
vt 0.175661 0.039816
vt 0.160818 0.024974
vt 0.175661 0.024974
vt 0.145976 0.039816
vt 0.160819 0.471944
vt 0.145977 0.471944
vt 0.175662 0.471944
vt 0.294291 0.924153
vt 0.294291 0.741388
vt 0.162442 0.924153
vt 0.162442 0.741388
vt 0.202729 0.984592
vt 0.319482 0.984592
vt 0.119217 0.956032
vt 0.095851 0.865616
vt 0.119217 0.848800
vt 0.050585 0.939216
vt 0.095851 0.939216
vt 0.040680 0.838586
vt 0.105757 0.838586
vt 0.027219 0.848800
vt 0.027219 0.956032
vt 0.789869 0.982632
vt 0.731301 0.798538
vt 0.790335 0.799639
vt 0.676181 0.982632
vt 0.686100 0.809398
vt 0.065494 0.033410
vt 0.719157 0.115230
vt 0.918677 0.134487
vt 0.753907 0.345737
vt 0.756406 0.476970
vt 0.983522 0.269905
vt 0.936215 0.407700
vt 0.983522 0.412936
vt 0.935641 0.270464
vt 0.869345 0.038647
vt 0.906876 0.024869
vt 0.978695 0.522422
vt 0.916358 0.585348
vt 0.964847 0.605179
vt 0.929301 0.507274
vt 0.898195 0.670478
vt 0.947155 0.695048
vt 0.875172 0.272965
vt 0.861851 0.568424
vt 0.870544 0.497370
vt 0.836476 0.694252
vt 0.852693 0.632501
vt 0.875523 0.154886
vt 0.798453 0.152355
vt 0.804588 0.035254
vt 0.876595 0.406700
vt 0.749773 0.221289
vt 0.694259 0.727073
vt 0.727069 0.650264
vt 0.749773 0.577193
vt 0.232538 0.021490
vt 0.234583 0.649797
vt 0.535342 0.021939
vt 0.417445 0.878288
vt 0.602192 0.942666
vt 0.418030 0.347806
vt 0.190503 0.039816
vt 0.190503 0.471944
vt 0.359769 0.741388
vt 0.040680 0.966246
vt 0.105757 0.966246
vt 0.860389 0.800906
vt 0.797752 0.982632
vt 0.801345 0.800734
vt 0.905247 0.812726
vt 0.911453 0.982632
vt 0.731470 0.787770
vt 0.790389 0.788872
vt 0.685295 0.792302
vt 0.205347 0.039816
vt 0.205347 0.471944
vt 0.083429 0.803635
vt 0.029627 0.785702
vt 0.101362 0.785702
vt 0.906882 0.024850
vt 0.979829 0.012851
vt 0.160818 0.039816
vt 0.227920 0.924153
vt 0.050585 0.865616
vt 0.611571 0.982632
vt 0.979835 0.012832
vt 0.697036 0.021616
vt 0.359769 0.924153
vt 0.976080 0.982632
vn -0.5773 0.5773 0.5774
vn 0.5774 0.5773 -0.5774
vn -0.5774 0.5773 -0.5773
vn 0.7071 -0.0000 0.7071
vn 0.7071 0.0000 -0.7071
vn -0.7071 -0.0000 0.7071
vn 0.0000 0.0000 -1.0000
vn 0.0000 -0.1947 -0.9809
vn 0.0000 -0.1961 -0.9806
vn 0.8356 -0.5353 -0.1232
vn 0.8447 -0.4607 -0.2723
vn 0.9163 -0.3794 -0.1280
vn 0.0000 0.9999 0.0141
vn -0.0000 0.9999 -0.0127
vn -0.0000 0.9999 -0.0125
vn 0.9762 -0.2125 -0.0424
vn 0.9011 -0.4318 0.0402
vn 0.9023 -0.4295 -0.0380
vn 0.9554 -0.2659 -0.1286
vn 0.6534 -0.7118 -0.2575
vn 0.5478 -0.8346 -0.0579
vn 0.9261 -0.3184 0.2024
vn 0.8319 -0.4366 0.3425
vn 0.8729 -0.4563 0.1729
vn 0.9747 -0.2194 0.0438
vn 0.7679 -0.4579 0.4479
vn 0.8592 -0.3692 0.3542
vn 0.7924 -0.3773 0.4793
vn 0.0000 -0.5633 0.8263
vn -0.0000 -0.3942 0.9190
vn 0.5576 -0.8298 -0.0224
vn 0.6013 -0.7649 0.2309
vn 0.5783 -0.8108 0.0899
vn 0.0000 -0.7988 0.6016
vn 0.5944 -0.7105 0.3766
vn -0.0000 -0.9967 -0.0812
vn 0.0000 -0.9845 -0.1751
vn 0.0000 -0.9642 0.2653
vn 0.0000 -0.9953 0.0966
vn 0.0000 -0.9995 0.0324
vn 0.5710 -0.8207 0.0219
vn 0.0000 -1.0000 -0.0010
vn -0.0000 -0.9995 -0.0300
vn 0.0000 0.9979 0.0654
vn 0.0000 0.9989 0.0471
vn 0.0000 0.9990 0.0451
vn 0.0000 0.9962 -0.0868
vn -0.0000 0.9980 -0.0631
vn 0.0000 0.9965 -0.0838
vn -0.0000 0.9996 -0.0294
vn -0.0000 0.9996 -0.0299
vn 0.0000 0.9999 0.0144
vn -0.0000 0.9984 -0.0564
vn 0.0000 0.9971 -0.0759
vn -0.9554 -0.2659 -0.1286
vn -0.8447 -0.4607 -0.2723
vn -0.9163 -0.3794 -0.1280
vn -0.0000 -0.1935 -0.9811
vn -0.0000 -0.1909 -0.9816
vn 1.0000 0.0000 -0.0000
vn -0.5773 0.5774 -0.5773
vn 0.5774 -0.5773 -0.5774
vn -0.5774 -0.5773 -0.5774
vn 0.7071 0.7071 0.0000
vn 0.7071 -0.7071 -0.0000
vn -0.7071 0.7071 0.0000
vn -0.5547 0.8321 0.0000
vn 0.5547 0.8321 0.0000
vn 0.9230 0.3847 0.0000
vn 0.0000 -0.0000 1.0000
vn -0.0000 0.4240 -0.9057
vn -0.0000 0.7829 -0.6221
vn 0.0000 0.7829 0.6222
vn 0.7829 0.6221 0.0000
vn 0.0000 0.4239 0.9057
vn 0.6885 -0.0883 -0.7199
vn 0.9979 -0.0355 0.0533
vn 0.7225 -0.0858 -0.6861
vn 0.9955 -0.0403 0.0854
vn 0.9886 -0.0527 0.1407
vn -0.7071 0.0000 -0.7071
vn -0.8356 -0.5353 -0.1232
vn -0.9762 -0.2125 -0.0424
vn -0.9011 -0.4318 0.0402
vn -0.9747 -0.2194 0.0438
vn -0.9023 -0.4295 -0.0380
vn -0.6534 -0.7118 -0.2575
vn -0.8026 -0.5082 -0.3124
vn -0.9261 -0.3184 0.2024
vn -0.8319 -0.4366 0.3425
vn -0.8592 -0.3692 0.3542
vn -0.8729 -0.4563 0.1729
vn -0.7679 -0.4579 0.4479
vn -0.7924 -0.3773 0.4793
vn -0.5576 -0.8298 -0.0224
vn -0.6013 -0.7649 0.2309
vn -0.5783 -0.8108 0.0899
vn -0.5944 -0.7105 0.3766
vn -0.5478 -0.8346 -0.0579
vn -0.5710 -0.8207 0.0219
vn -1.0000 -0.0000 0.0000
vn -0.7071 -0.7071 -0.0000
vn -0.9230 0.3847 0.0000
vn -0.7829 0.6221 0.0000
vn -0.9979 -0.0355 0.0533
vn -0.6884 -0.0883 -0.7199
vn -0.7225 -0.0858 -0.6861
vn -0.9886 -0.0527 0.1407
vn -0.9955 -0.0403 0.0854
vn 0.0000 -1.0000 -0.0028
vn 0.0000 -0.9920 0.1266
vn 0.0000 -0.9644 0.2643
vn 0.5774 0.5774 0.5774
vn 0.8026 -0.5082 -0.3124
vn -0.9581 -0.0562 -0.2808
vn 0.5774 0.5774 -0.5774
vn 0.9869 -0.0522 0.1530
vn 0.9581 -0.0562 -0.2808
vn -0.9869 -0.0522 0.1530
s 1
f 73/1/1 1/2/2 71/3/3
f 1/4/2 4/5/4 2/6/5
f 4/7/4 73/1/1 72/8/6
f 107/9/7 56/10/7 57/11/7
f 5/12/8 42/13/9 7/14/9
f 14/15/10 5/16/11 12/17/12
f 8/18/13 37/19/14 9/20/15
f 8/21/16 10/22/17 11/23/18
f 8/21/16 12/17/12 13/24/19
f 11/23/18 14/15/10 12/17/12
f 44/25/20 14/15/10 29/26/21
f 15/27/22 17/28/23 18/29/24
f 18/29/24 9/30/25 15/27/22
f 19/31/26 16/32/27 20/33/28
f 22/34/29 20/33/28 21/35/30
f 10/22/17 24/36/31 11/23/18
f 18/29/24 25/37/32 26/38/33
f 26/38/33 10/22/17 18/29/24
f 19/31/26 27/39/34 28/40/35
f 28/40/35 17/28/23 19/31/26
f 11/23/18 29/26/21 14/15/10
f 44/25/20 35/41/36 43/42/37
f 28/40/35 27/39/34 30/43/38
f 25/37/32 30/43/38 31/44/39
f 26/38/33 31/44/39 32/45/40
f 23/46/41 32/45/40 33/47/42
f 24/36/31 33/47/42 34/48/43
f 29/26/21 34/48/43 35/41/36
f 7/14/44 41/49/45 13/50/46
f 20/51/47 38/52/48 39/53/49
f 15/54/50 37/19/14 40/55/51
f 13/50/46 36/56/52 8/18/13
f 16/57/53 40/55/51 38/52/48
f 20/51/47 39/53/49 21/58/54
f 81/59/55 75/60/56 82/61/57
f 75/62/8 45/63/58 74/64/59
f 43/65/59 6/66/59 44/67/59
f 46/68/60 47/69/60 48/70/60
f 49/71/60 50/72/60 51/73/60
f 106/74/61 52/75/62 104/76/63
f 52/77/62 55/78/64 53/79/65
f 55/78/64 106/74/61 105/80/66
f 110/81/67 56/10/68 108/82/67
f 56/10/68 59/83/69 57/84/69
f 59/85/70 110/81/70 109/86/70
f 111/87/71 60/88/72 61/89/71
f 114/90/73 60/88/72 112/91/72
f 60/88/74 63/92/74 61/93/74
f 63/94/75 114/90/73 113/95/75
f 64/96/76 67/97/77 65/98/78
f 66/99/79 68/100/80 67/97/77
f 72/8/6 71/3/3 70/101/81
f 42/13/9 75/62/8 76/102/9
f 75/60/56 83/103/82 82/61/57
f 37/19/14 77/104/13 80/105/15
f 77/106/83 79/107/84 80/108/85
f 77/106/83 82/61/57 78/109/86
f 78/109/86 82/61/57 83/103/82
f 96/110/87 83/103/82 74/111/88
f 84/112/89 86/113/90 87/114/91
f 80/108/85 85/115/92 84/112/89
f 88/116/93 87/114/91 86/113/90
f 89/117/94 22/34/29 21/35/30
f 90/118/95 79/107/84 78/109/86
f 85/115/92 93/119/96 86/113/90
f 79/107/84 92/120/97 85/115/92
f 88/116/93 27/121/34 22/34/29
f 86/113/90 94/122/98 88/116/93
f 78/109/86 95/123/99 90/118/95
f 35/124/36 96/110/87 43/125/37
f 94/122/98 30/43/38 27/121/34
f 93/119/96 30/43/38 94/122/98
f 92/120/97 31/44/39 93/119/96
f 91/126/100 32/45/40 92/120/97
f 90/118/95 33/47/42 91/126/100
f 95/123/99 34/48/43 90/118/95
f 41/49/45 76/102/44 81/127/46
f 89/128/47 38/52/48 87/129/53
f 84/130/50 37/19/14 80/105/15
f 36/56/52 81/127/46 77/104/13
f 87/129/53 40/55/51 84/130/50
f 89/128/47 21/58/54 39/53/49
f 5/16/11 13/24/19 12/17/12
f 43/65/59 74/64/59 45/63/58
f 97/131/101 98/132/101 99/133/101
f 100/134/101 101/135/101 102/136/101
f 105/80/66 104/137/63 103/138/102
f 107/139/103 110/81/67 108/82/67
f 113/140/104 112/91/104 111/141/104
f 117/142/105 116/143/106 115/144/107
f 68/145/108 118/146/109 117/142/105
f 6/66/59 45/63/58 5/12/8
f 116/143/106 65/98/78 115/144/107
f 65/98/110 117/147/111 115/148/110
f 68/149/112 117/147/111 67/97/111
f 70/101/81 1/4/2 2/6/5
f 103/138/102 52/150/62 53/151/65
f 73/1/1 3/152/113 1/2/2
f 1/4/2 3/153/113 4/5/4
f 4/7/4 3/154/113 73/1/1
f 107/9/7 108/82/7 56/10/7
f 5/12/8 45/63/58 42/13/9
f 14/15/10 6/155/114 5/16/11
f 8/18/13 36/56/52 37/19/14
f 8/21/16 9/30/25 10/22/17
f 8/21/16 11/23/18 12/17/12
f 44/25/20 6/155/114 14/15/10
f 15/27/22 16/32/27 17/28/23
f 18/29/24 10/22/17 9/30/25
f 19/31/26 17/28/23 16/32/27
f 22/34/29 19/31/26 20/33/28
f 10/22/17 23/46/41 24/36/31
f 18/29/24 17/28/23 25/37/32
f 26/38/33 23/46/41 10/22/17
f 19/31/26 22/34/29 27/39/34
f 28/40/35 25/37/32 17/28/23
f 11/23/18 24/36/31 29/26/21
f 44/25/20 29/26/21 35/41/36
f 25/37/32 28/40/35 30/43/38
f 26/38/33 25/37/32 31/44/39
f 23/46/41 26/38/33 32/45/40
f 24/36/31 23/46/41 33/47/42
f 29/26/21 24/36/31 34/48/43
f 7/14/44 42/13/44 41/49/45
f 20/51/47 16/57/53 38/52/48
f 15/54/50 9/20/15 37/19/14
f 13/50/46 41/49/45 36/56/52
f 16/57/53 15/54/50 40/55/51
f 81/59/55 76/156/115 75/60/56
f 43/65/59 45/63/58 6/66/59
f 106/74/61 54/157/116 52/75/62
f 52/77/62 54/157/116 55/78/64
f 55/78/64 54/157/116 106/74/61
f 110/81/67 58/158/68 56/10/68
f 56/10/68 58/158/68 59/83/69
f 59/85/70 58/158/70 110/81/70
f 111/87/71 112/91/72 60/88/72
f 114/90/73 62/159/73 60/88/72
f 60/88/74 62/159/74 63/92/74
f 63/94/75 62/159/73 114/90/73
f 64/96/76 66/99/79 67/97/77
f 66/99/79 69/160/117 68/100/80
f 72/8/6 73/1/1 71/3/3
f 42/13/9 45/63/58 75/62/8
f 75/60/56 74/111/88 83/103/82
f 37/19/14 36/56/52 77/104/13
f 77/106/83 78/109/86 79/107/84
f 77/106/83 81/59/55 82/61/57
f 96/110/87 95/123/99 83/103/82
f 84/112/89 85/115/92 86/113/90
f 80/108/85 79/107/84 85/115/92
f 88/116/93 89/117/94 87/114/91
f 89/117/94 88/116/93 22/34/29
f 90/118/95 91/126/100 79/107/84
f 85/115/92 92/120/97 93/119/96
f 79/107/84 91/126/100 92/120/97
f 88/116/93 94/122/98 27/121/34
f 86/113/90 93/119/96 94/122/98
f 78/109/86 83/103/82 95/123/99
f 35/124/36 95/123/99 96/110/87
f 93/119/96 31/44/39 30/43/38
f 92/120/97 32/45/40 31/44/39
f 91/126/100 33/47/42 32/45/40
f 90/118/95 34/48/43 33/47/42
f 95/123/99 35/124/36 34/48/43
f 41/49/45 42/13/44 76/102/44
f 89/128/47 39/53/49 38/52/48
f 84/130/50 40/55/51 37/19/14
f 36/56/52 41/49/45 81/127/46
f 87/129/53 38/52/48 40/55/51
f 5/16/11 7/161/118 13/24/19
f 43/65/59 96/162/59 74/64/59
f 105/80/66 106/74/61 104/137/63
f 107/139/103 109/163/103 110/81/67
f 113/140/104 114/90/104 112/91/104
f 117/142/105 118/146/109 116/143/106
f 68/145/108 69/164/119 118/146/109
f 116/143/106 64/96/76 65/98/78
f 65/98/110 67/97/111 117/147/111
f 70/101/81 71/3/3 1/4/2
f 103/138/102 104/137/63 52/150/62
