# Blender v2.80 (sub 75) OBJ File: ''
# www.blender.org
g Icosphere_(Split)
v 0.000000 -1.000000 -0.000000
v 0.425323 -0.850654 0.309011
v -0.162456 -0.850654 0.499995
v 0.723607 -0.447220 0.525725
v 0.850648 -0.525736 -0.000000
v -0.162456 -0.850654 0.499995
v -0.525730 -0.850652 -0.000000
v -0.162456 -0.850654 -0.499995
v 0.425323 -0.850654 -0.309011
v 0.723607 -0.447220 0.525725
v 0.850648 -0.525736 -0.000000
v 0.951058 -0.000000 0.309013
v -0.276388 -0.447220 0.850649
v 0.262869 -0.525738 0.809012
v 0.000000 -0.000000 1.000000
v -0.894426 -0.447216 -0.000000
v -0.688189 -0.525736 0.499997
v -0.951058 -0.000000 0.309013
v -0.276388 -0.447220 -0.850649
v -0.688189 -0.525736 -0.499997
v -0.587786 0.000000 -0.809017
v 0.723607 -0.447220 -0.525725
v 0.262869 -0.525738 -0.809012
v 0.587786 0.000000 -0.809017
v 0.587786 -0.000000 0.809017
v -0.587786 -0.000000 0.809017
v -0.894426 -0.447216 -0.000000
v -0.951058 -0.000000 0.309013
v -0.951058 0.000000 -0.309013
v 0.000000 0.000000 -1.000000
v 0.951058 0.000000 -0.309013
v 0.276388 0.447220 0.850649
v 0.688189 0.525736 0.499997
v 0.162456 0.850654 0.499995
v -0.723607 0.447220 0.525725
v -0.262869 0.525738 0.809012
v -0.425323 0.850654 0.309011
v -0.723607 0.447220 -0.525725
v -0.850648 0.525736 0.000000
v -0.425323 0.850654 -0.309011
v 0.276388 0.447220 -0.850649
v -0.262869 0.525738 -0.809012
v 0.162456 0.850654 -0.499995
v 0.894426 0.447216 0.000000
v 0.688189 0.525736 -0.499997
v 0.525730 0.850652 0.000000
v 0.000000 1.000000 0.000000
v -0.425323 0.850654 -0.309011
v -0.262869 0.525738 -0.809012
v -0.262869 0.525738 -0.809012
v -0.723607 0.447220 -0.525725
v -0.425323 0.850654 -0.309011
v -0.425323 0.850654 0.309011
v 0.000000 1.000000 0.000000
v -0.850648 0.525736 0.000000
v 0.162456 0.850654 0.499995
v -0.425323 0.850654 0.309011
v -0.262869 0.525738 0.809012
v 0.162456 0.850654 0.499995
v 0.000000 1.000000 0.000000
v 0.688189 0.525736 0.499997
v 0.688189 0.525736 -0.499997
v 0.000000 0.000000 -1.000000
v -0.262869 0.525738 -0.809012
v -0.587786 0.000000 -0.809017
v -0.262869 0.525738 0.809012
v -0.723607 0.447220 0.525725
v 0.000000 -0.000000 1.000000
v 0.587786 -0.000000 0.809017
v 0.587786 0.000000 -0.809017
v 0.262869 -0.525738 -0.809012
v -0.951058 0.000000 -0.309013
v -0.688189 -0.525736 -0.499997
v -0.951058 0.000000 -0.309013
v -0.951058 -0.000000 0.309013
v -0.587786 -0.000000 0.809017
v 0.000000 -0.000000 1.000000
v 0.587786 -0.000000 0.809017
v 0.262869 -0.525738 0.809012
v 0.262869 -0.525738 -0.809012
v 0.723607 -0.447220 -0.525725
v 0.262869 -0.525738 -0.809012
v -0.162456 -0.850654 -0.499995
v -0.688189 -0.525736 -0.499997
v -0.525730 -0.850652 -0.000000
v 0.262869 -0.525738 0.809012
v -0.276388 -0.447220 0.850649
v 0.425323 -0.850654 0.309011
vt 0.403766 0.762896
vt 0.407267 0.861587
vt 0.312978 0.801751
vt 0.425931 0.958561
vt 0.509649 0.906183
vt 0.305853 0.775752
vt 0.356466 0.676206
vt 0.467565 0.687518
vt 0.497078 0.795220
vt 0.763623 0.455406
vt 0.661883 0.446591
vt 0.735157 0.357330
vt 0.207128 0.773370
vt 0.214130 0.871875
vt 0.117775 0.815423
vt 0.296376 0.597838
vt 0.244951 0.682146
vt 0.199197 0.580275
vt 0.793001 0.858695
vt 0.706614 0.810843
vt 0.806481 0.760864
vt 0.560706 0.414874
vt 0.449362 0.423841
vt 0.512189 0.314253
vt 0.844835 0.393486
vt 0.135681 0.705194
vt 0.346654 0.335204
vt 0.248040 0.340469
vt 0.306180 0.245125
vt 0.889109 0.835988
vt 0.630172 0.339847
vt 0.884233 0.260673
vt 0.785787 0.258142
vt 0.851092 0.167938
vt 0.149792 0.330479
vt 0.057463 0.365515
vt 0.083817 0.256996
vt 0.431218 0.521896
vt 0.520465 0.479621
vt 0.502833 0.589893
vt 0.514335 0.205496
vt 0.463891 0.121379
vt 0.577864 0.137388
vt 0.688127 0.270808
vt 0.595613 0.246797
vt 0.679375 0.176529
vt 0.657168 0.082918
vt 0.577765 0.028593
vt 0.483595 0.083076
vt 0.268134 0.064878
vt 0.252312 0.162356
vt 0.167098 0.112446
vt 0.607147 0.550028
vt 0.584067 0.646046
vt 0.194538 0.242445
vt 0.681948 0.632947
vt 0.929513 0.088873
vt 0.958776 0.196320
vt 0.771274 0.121587
vt 0.685252 0.082028
vt 0.772905 0.228646
vt 0.594212 0.247997
vt 0.414521 0.232075
vt 0.912854 0.726866
vt 0.348939 0.141961
vt 0.031266 0.744800
vt 0.054584 0.648839
vt 0.971137 0.306996
vt 0.846371 0.351583
vt 0.959178 0.922943
vt 0.848837 0.940148
vt 0.713264 0.699367
vt 0.391140 0.570053
vt 0.304632 0.499430
vt 0.136392 0.593522
vt 0.133851 0.670835
vt 0.955371 0.328772
vt 0.117063 0.927094
vt 0.850661 0.508823
vt 0.596043 0.743481
vt 0.584299 0.841534
vt 0.575595 0.715810
vt 0.737164 0.940148
vt 0.696892 0.835989
vt 0.626824 0.922944
vt 0.308303 0.913326
vt 0.229259 0.854129
vt 0.745188 0.555851
vn -0.0000 -1.0000 -0.0000
vn 0.4099 -0.8777 0.2483
vn 0.0889 -0.8218 0.5629
vn 0.7002 -0.6617 0.2680
vn 0.6859 -0.7277 -0.0000
vn -0.4027 -0.8217 0.4031
vn -0.5240 -0.8479 0.0803
vn 0.0124 -0.9243 -0.3816
vn 0.4253 -0.8507 -0.3090
vn 0.7162 -0.3822 0.5839
vn 0.9576 -0.2880 -0.0000
vn 0.9511 -0.0000 0.3090
vn -0.3340 -0.3822 0.8616
vn 0.1716 -0.2595 0.9504
vn -0.0715 -0.1157 0.9907
vn -0.8519 -0.5237 -0.0000
vn -0.6882 -0.5257 0.5000
vn -0.8508 -0.2595 0.4569
vn -0.2764 -0.4472 -0.8506
vn -0.6974 -0.2595 -0.6680
vn -0.5245 -0.1157 -0.8435
vn 0.7783 -0.2730 -0.5655
vn 0.5346 -0.3304 -0.7779
vn 0.6411 0.0422 -0.7663
vn 0.6816 -0.2325 0.6938
vn -0.5306 0.0422 0.8466
vn -0.9921 -0.1256 -0.0000
vn -0.9867 0.1359 0.0894
vn -0.9661 0.1369 -0.2187
vn -0.0715 -0.1157 -0.9907
vn 0.9511 0.0000 -0.3090
vn 0.2764 0.4472 0.8506
vn 0.7018 0.3918 0.5950
vn 0.0825 0.7345 0.6736
vn -0.7208 0.5741 0.3885
vn -0.4713 0.6617 0.5831
vn -0.5972 0.6746 0.4339
vn -0.7002 0.6617 -0.2680
vn -0.6600 0.7398 -0.1305
vn -0.5628 0.8218 -0.0894
vn 0.2764 0.4472 -0.8506
vn 0.0070 0.5057 -0.8627
vn 0.1625 0.8507 -0.5000
vn 0.8944 0.4472 0.0000
vn 0.6559 0.6454 -0.3914
vn 0.5257 0.8507 0.0000
vn 0.0844 0.9619 -0.2599
vn -0.1485 0.8771 -0.4569
vn -0.1876 0.7947 -0.5773
vn -0.5128 0.5057 -0.6938
vn -0.7162 0.3822 -0.5839
vn -0.4713 0.6617 -0.5831
vn -0.3667 0.9243 0.1061
vn -0.2211 0.9619 0.1606
vn -0.9175 0.3918 0.0689
vn -0.1024 0.9435 0.3151
vn -0.1876 0.7947 0.5773
vn -0.0636 0.6229 0.7797
vn 0.3886 0.8771 0.2824
vn 0.2680 0.9435 0.1947
vn 0.6106 0.7398 0.2824
vn 0.6974 0.2595 -0.6680
vn 0.1437 0.2325 -0.9619
vn -0.3035 0.1876 -0.9342
vn -0.6816 0.2325 -0.6938
vn -0.4198 0.2595 0.8697
vn -0.6816 0.2325 0.6938
vn -0.0247 0.3304 0.9435
vn 0.5856 0.2217 0.7797
vn 0.3035 -0.1876 -0.9342
vn 0.1057 -0.4022 -0.9094
vn -0.7947 -0.1876 -0.5773
vn -0.8226 -0.5057 -0.2599
vn -0.8897 -0.3304 -0.3151
vn -0.8026 0.1256 0.5831
vn -0.7947 -0.1876 0.5773
vn 0.3066 0.1256 0.9435
vn 0.3035 -0.1876 0.9342
vn 0.5128 -0.5057 0.6938
vn 0.4713 -0.6617 -0.5831
vn 0.5972 -0.6746 -0.4339
vn 0.1876 -0.7947 -0.5773
vn -0.3292 -0.7345 -0.5934
vn -0.4572 -0.7399 -0.4935
vn -0.4911 -0.7947 -0.3568
vn 0.0799 -0.7399 0.6680
vn -0.0385 -0.6617 0.7488
vn 0.4713 -0.6617 0.5831
s 1
f 1/1/1 2/2/2 3/3/3
f 4/4/4 2/2/2 5/5/5
f 1/1/1 6/6/6 7/7/7
f 1/1/1 7/7/7 8/8/8
f 1/1/1 8/8/8 9/9/9
f 10/10/10 11/11/11 12/12/12
f 13/13/13 14/14/14 15/15/15
f 16/16/16 17/17/17 18/18/18
f 19/19/19 20/20/20 21/21/21
f 22/22/22 23/23/23 24/24/24
f 10/10/10 12/12/12 25/25/25
f 13/13/13 15/15/15 26/26/26
f 27/27/27 28/28/28 29/29/29
f 19/19/19 21/21/21 30/30/30
f 22/22/22 24/24/24 31/31/31
f 32/32/32 33/33/33 34/34/34
f 35/35/35 36/36/36 37/37/37
f 38/38/38 39/39/39 40/40/40
f 41/41/41 42/42/42 43/43/43
f 44/44/44 45/45/45 46/46/46
f 46/46/46 43/43/43 47/47/47
f 46/46/46 45/45/45 43/43/43
f 45/45/45 41/41/41 43/43/43
f 43/43/43 48/48/48 47/47/47
f 43/43/43 49/49/49 48/48/48
f 50/50/50 51/51/51 52/52/52
f 40/40/40 53/53/53 54/54/54
f 40/40/40 39/39/39 53/53/53
f 55/55/55 35/35/35 37/37/37
f 53/53/53 56/56/56 54/54/54
f 57/57/57 58/58/58 34/34/34
f 58/58/58 32/32/32 34/34/34
f 59/59/59 46/46/46 60/60/60
f 59/59/59 61/61/61 46/46/46
f 61/61/61 44/44/44 46/46/46
f 31/31/31 45/45/45 44/44/44
f 31/31/31 24/24/24 62/62/62
f 24/24/24 41/41/41 62/62/62
f 63/63/63 42/42/42 41/41/41
f 30/30/30 21/21/21 64/64/64
f 65/65/65 51/51/51 50/50/50
f 29/29/29 55/55/55 51/51/51
f 29/29/29 28/28/28 55/55/55
f 28/28/28 35/35/35 55/55/55
f 26/26/26 66/66/66 67/67/67
f 26/26/26 15/15/15 66/66/66
f 68/68/68 32/32/32 58/58/58
f 69/69/69 33/33/33 32/32/32
f 69/69/69 12/12/12 33/33/33
f 12/12/12 44/44/44 33/33/33
f 24/24/24 63/63/63 41/41/41
f 70/70/70 71/71/71 30/30/30
f 71/71/71 19/19/19 30/30/30
f 65/65/65 29/29/29 51/51/51
f 21/21/21 20/20/20 72/72/72
f 73/73/73 16/16/16 74/74/74
f 75/75/75 26/26/26 67/67/67
f 18/18/18 17/17/17 76/76/76
f 17/17/17 13/13/13 26/26/26
f 77/77/77 69/69/69 32/32/32
f 15/15/15 14/14/14 78/78/78
f 79/79/79 10/10/10 25/25/25
f 12/12/12 31/31/31 44/44/44
f 12/12/12 11/11/11 31/31/31
f 11/11/11 22/22/22 31/31/31
f 9/9/9 80/80/80 81/81/81
f 9/9/9 8/8/8 82/82/82
f 83/83/83 19/19/19 71/71/71
f 83/83/83 84/84/84 19/19/19
f 83/83/83 85/85/85 84/84/84
f 7/7/7 16/16/16 73/73/73
f 7/7/7 17/17/17 16/16/16
f 7/7/7 6/6/6 17/17/17
f 6/6/6 13/13/13 17/17/17
f 5/5/5 9/9/9 81/81/81
f 5/5/5 2/2/2 9/9/9
f 2/2/2 1/1/1 9/9/9
f 3/3/3 86/86/86 87/87/87
f 3/3/3 2/2/2 86/86/86
f 88/88/88 10/10/10 79/79/79
