# Blender v2.80 (sub 75) OBJ File: ''
# www.blender.org
g UV-Sphere_(Low_Res)
v 0.000000 0.353553 -0.353553
v 0.000000 0.191342 -0.461940
v 0.000000 -0.191342 -0.461940
v 0.000000 -0.461940 -0.191342
v 0.073223 0.461940 -0.176777
v 0.135299 0.353553 -0.326641
v 0.176777 0.191342 -0.426777
v 0.191342 -0.000000 -0.461940
v 0.176777 -0.191342 -0.426777
v 0.135299 -0.353553 -0.326641
v 0.073223 -0.461940 -0.176777
v 0.135299 0.461940 -0.135299
v 0.250000 0.353553 -0.250000
v 0.326641 0.191342 -0.326641
v 0.353553 -0.000000 -0.353553
v 0.326641 -0.191342 -0.326641
v 0.250000 -0.353553 -0.250000
v 0.135299 -0.461940 -0.135299
v 0.176777 0.461940 -0.073223
v 0.326641 0.353553 -0.135299
v 0.426777 0.191342 -0.176777
v 0.461940 -0.000000 -0.191342
v 0.426777 -0.191342 -0.176777
v 0.326641 -0.353553 -0.135299
v 0.176777 -0.461940 -0.073223
v 0.191342 0.461940 -0.000000
v 0.353553 0.353553 -0.000000
v 0.461940 0.191342 -0.000000
v 0.500000 -0.000000 -0.000000
v 0.461940 -0.191342 -0.000000
v 0.353553 -0.353553 -0.000000
v 0.191342 -0.461940 -0.000000
v 0.176777 0.461940 0.073223
v 0.326641 0.353553 0.135299
v 0.426777 0.191342 0.176777
v 0.461940 -0.000000 0.191342
v 0.426777 -0.191342 0.176777
v 0.326641 -0.353553 0.135299
v 0.176777 -0.461940 0.073223
v 0.135299 0.461940 0.135299
v 0.250000 0.353553 0.250000
v 0.326641 0.191342 0.326641
v 0.353553 -0.000000 0.353553
v 0.326641 -0.191342 0.326641
v 0.250000 -0.353553 0.250000
v 0.135299 -0.461940 0.135299
v 0.073223 0.461940 0.176777
v 0.135299 0.353553 0.326641
v 0.176777 0.191342 0.426777
v 0.191342 -0.000000 0.461940
v 0.176777 -0.191342 0.426777
v 0.135299 -0.353553 0.326641
v 0.073223 -0.461940 0.176777
v -0.000000 0.461940 0.191342
v -0.000000 0.353553 0.353553
v -0.000000 0.191342 0.461940
v -0.000000 -0.000000 0.500000
v -0.000000 -0.191342 0.461940
v -0.000000 -0.353553 0.353553
v -0.000000 -0.461940 0.191342
v -0.073223 0.461940 0.176777
v -0.135299 0.353553 0.326640
v -0.176777 0.191342 0.426776
v -0.191342 -0.000000 0.461939
v -0.176777 -0.191342 0.426776
v -0.135299 -0.353553 0.326640
v -0.073223 -0.461940 0.176777
v -0.135299 0.461940 0.135299
v -0.250000 0.353553 0.250000
v -0.326641 0.191342 0.326640
v -0.353553 -0.000000 0.353553
v -0.326641 -0.191342 0.326640
v -0.250000 -0.353553 0.250000
v -0.135299 -0.461940 0.135299
v -0.176777 0.461940 0.073223
v -0.326641 0.353553 0.135299
v -0.426777 0.191342 0.176776
v -0.461940 -0.000000 0.191341
v -0.426777 -0.191342 0.176776
v -0.326641 -0.353553 0.135299
v -0.176777 -0.461940 0.073223
v -0.191342 0.461940 -0.000000
v -0.353553 0.353553 -0.000000
v -0.461940 0.191342 -0.000000
v -0.500000 -0.000000 -0.000000
v -0.461940 -0.191342 -0.000000
v -0.353553 -0.353553 -0.000000
v -0.191342 -0.461940 -0.000000
v -0.176777 0.461940 -0.073223
v -0.326641 0.353553 -0.135299
v -0.426776 0.191342 -0.176777
v -0.461939 -0.000000 -0.191342
v -0.426776 -0.191342 -0.176777
v -0.326641 -0.353553 -0.135299
v -0.176777 -0.461940 -0.073223
v -0.135299 0.461940 -0.135299
v -0.250000 0.353553 -0.250000
v -0.326640 0.191342 -0.326641
v -0.353553 -0.000000 -0.353554
v -0.326640 -0.191342 -0.326641
v -0.250000 -0.353553 -0.250000
v -0.135299 -0.461940 -0.135299
v -0.073223 0.461940 -0.176777
v -0.135299 0.353553 -0.326641
v -0.176776 0.191342 -0.426777
v -0.191341 -0.000000 -0.461940
v -0.176776 -0.191342 -0.426777
v -0.135299 -0.353553 -0.326641
v -0.073223 -0.461940 -0.176777
v -0.000000 0.500000 -0.000000
v 0.000000 0.461940 -0.191342
v 0.000000 -0.000000 -0.500000
v 0.000000 -0.353553 -0.353553
v 0.000000 -0.500000 -0.000000
vt 0.750000 0.875000
vt 0.718750 1.000000
vt 0.687500 0.875000
vt 0.718750 0.000000
vt 0.750000 0.125000
vt 0.687500 0.125000
vt 0.750000 0.250000
vt 0.687500 0.375000
vt 0.687500 0.250000
vt 0.750000 0.500000
vt 0.687500 0.625000
vt 0.687500 0.500000
vt 0.687500 0.750000
vt 0.750000 0.750000
vt 0.750000 0.375000
vt 0.750000 0.625000
vt 0.625000 0.500000
vt 0.625000 0.750000
vt 0.625000 0.125000
vt 0.625000 0.375000
vt 0.625000 0.625000
vt 0.656250 1.000000
vt 0.625000 0.875000
vt 0.656250 0.000000
vt 0.625000 0.250000
vt 0.562500 0.250000
vt 0.562500 0.125000
vt 0.562500 0.375000
vt 0.562500 0.625000
vt 0.593750 1.000000
vt 0.562500 0.875000
vt 0.593750 0.000000
vt 0.562500 0.500000
vt 0.562500 0.750000
vt 0.500000 0.625000
vt 0.531250 1.000000
vt 0.500000 0.875000
vt 0.531250 0.000000
vt 0.500000 0.125000
vt 0.500000 0.250000
vt 0.500000 0.500000
vt 0.500000 0.750000
vt 0.500000 0.375000
vt 0.468750 0.000000
vt 0.437500 0.125000
vt 0.437500 0.250000
vt 0.437500 0.500000
vt 0.437500 0.875000
vt 0.437500 0.750000
vt 0.437500 0.375000
vt 0.437500 0.625000
vt 0.468750 1.000000
vt 0.375000 0.875000
vt 0.375000 0.750000
vt 0.375000 0.125000
vt 0.375000 0.375000
vt 0.375000 0.625000
vt 0.406250 1.000000
vt 0.406250 0.000000
vt 0.375000 0.250000
vt 0.375000 0.500000
vt 0.312500 0.250000
vt 0.312500 0.125000
vt 0.312500 0.375000
vt 0.312500 0.625000
vt 0.343750 1.000000
vt 0.312500 0.875000
vt 0.343750 0.000000
vt 0.312500 0.500000
vt 0.312500 0.750000
vt 0.281250 1.000000
vt 0.250000 0.875000
vt 0.281250 0.000000
vt 0.250000 0.125000
vt 0.250000 0.250000
vt 0.250000 0.500000
vt 0.250000 0.750000
vt 0.250000 0.375000
vt 0.250000 0.625000
vt 0.187500 0.250000
vt 0.187500 0.500000
vt 0.187500 0.875000
vt 0.187500 0.750000
vt 0.187500 0.125000
vt 0.187500 0.375000
vt 0.187500 0.625000
vt 0.218750 1.000000
vt 0.218750 0.000000
vt 0.125000 0.125000
vt 0.125000 0.375000
vt 0.125000 0.625000
vt 0.156250 1.000000
vt 0.125000 0.875000
vt 0.156250 0.000000
vt 0.125000 0.250000
vt 0.125000 0.500000
vt 0.125000 0.750000
vt 0.062500 0.375000
vt 0.062500 0.750000
vt 0.062500 0.625000
vt 0.093750 1.000000
vt 0.062500 0.875000
vt 0.093750 0.000000
vt 0.062500 0.125000
vt 0.062500 0.250000
vt 0.062500 0.500000
vt 0.031250 0.000000
vt 0.000000 0.125000
vt 0.000000 0.375000
vt 0.000000 0.250000
vt 0.000000 0.500000
vt 0.000000 0.875000
vt 0.000000 0.750000
vt 0.000000 0.625000
vt 0.031250 1.000000
vt 1.000000 0.500000
vt 0.937500 0.625000
vt 0.937500 0.500000
vt 1.000000 0.750000
vt 0.937500 0.875000
vt 0.937500 0.750000
vt 1.000000 0.250000
vt 0.937500 0.125000
vt 1.000000 0.125000
vt 0.937500 0.375000
vt 1.000000 0.375000
vt 1.000000 0.625000
vt 1.000000 0.875000
vt 0.968750 1.000000
vt 0.968750 0.000000
vt 0.937500 0.250000
vt 0.875000 0.125000
vt 0.875000 0.375000
vt 0.875000 0.625000
vt 0.906250 1.000000
vt 0.875000 0.875000
vt 0.906250 0.000000
vt 0.875000 0.250000
vt 0.875000 0.500000
vt 0.875000 0.750000
vt 0.812500 0.625000
vt 0.843750 1.000000
vt 0.812500 0.875000
vt 0.843750 0.000000
vt 0.812500 0.125000
vt 0.812500 0.250000
vt 0.812500 0.500000
vt 0.812500 0.750000
vt 0.812500 0.375000
vt 0.781250 0.000000
vt 0.781250 1.000000
vn 0.0000 0.9152 -0.4031
vn 0.0000 1.0000 0.0000
vn 0.1542 0.9152 -0.3724
vn 0.0000 -1.0000 0.0000
vn 0.0000 -0.9152 -0.4031
vn 0.1542 -0.9152 -0.3724
vn 0.0000 -0.6952 -0.7188
vn 0.3548 -0.3743 -0.8567
vn 0.2751 -0.6952 -0.6641
vn 0.0000 0.0000 -1.0000
vn 0.3548 0.3743 -0.8567
vn 0.3827 0.0000 -0.9239
vn 0.2751 0.6952 -0.6641
vn 0.0000 0.6952 -0.7188
vn 0.0000 -0.3743 -0.9273
vn 0.0000 0.3743 -0.9273
vn 0.7071 0.0000 -0.7071
vn 0.5083 0.6952 -0.5083
vn 0.2850 -0.9152 -0.2850
vn 0.6557 -0.3743 -0.6557
vn 0.6557 0.3743 -0.6557
vn 0.2850 0.9152 -0.2850
vn 0.5083 -0.6952 -0.5083
vn 0.6641 -0.6952 -0.2751
vn 0.3724 -0.9152 -0.1542
vn 0.8567 -0.3743 -0.3548
vn 0.8567 0.3743 -0.3548
vn 0.3724 0.9152 -0.1542
vn 0.9239 0.0000 -0.3827
vn 0.6641 0.6952 -0.2751
vn 0.9273 0.3743 0.0000
vn 0.4031 0.9152 0.0000
vn 0.4031 -0.9152 0.0000
vn 0.7188 -0.6952 0.0000
vn 1.0000 0.0000 0.0000
vn 0.7188 0.6952 0.0000
vn 0.9273 -0.3743 0.0000
vn 0.3724 -0.9152 0.1542
vn 0.6641 -0.6952 0.2751
vn 0.9239 0.0000 0.3827
vn 0.3724 0.9152 0.1542
vn 0.6641 0.6952 0.2751
vn 0.8567 -0.3743 0.3548
vn 0.8567 0.3743 0.3548
vn 0.2850 0.9152 0.2850
vn 0.5083 0.6952 0.5083
vn 0.2850 -0.9152 0.2850
vn 0.6557 -0.3743 0.6557
vn 0.6557 0.3743 0.6557
vn 0.5083 -0.6952 0.5083
vn 0.7071 0.0000 0.7071
vn 0.2751 -0.6952 0.6641
vn 0.1542 -0.9152 0.3724
vn 0.3548 -0.3743 0.8567
vn 0.3548 0.3743 0.8567
vn 0.1542 0.9152 0.3724
vn 0.3827 0.0000 0.9239
vn 0.2751 0.6952 0.6641
vn 0.0000 0.9152 0.4031
vn 0.0000 -0.9152 0.4031
vn 0.0000 -0.6952 0.7188
vn 0.0000 0.0000 1.0000
vn 0.0000 0.6952 0.7188
vn 0.0000 -0.3743 0.9273
vn 0.0000 0.3743 0.9273
vn -0.2751 -0.6952 0.6641
vn -0.3827 0.0000 0.9239
vn -0.1542 0.9152 0.3724
vn -0.2751 0.6952 0.6641
vn -0.1542 -0.9152 0.3724
vn -0.3548 -0.3743 0.8567
vn -0.3548 0.3743 0.8567
vn -0.2850 -0.9152 0.2850
vn -0.6557 -0.3743 0.6557
vn -0.6557 0.3743 0.6557
vn -0.2850 0.9152 0.2850
vn -0.5083 -0.6952 0.5083
vn -0.7071 0.0000 0.7071
vn -0.5083 0.6952 0.5083
vn -0.8567 -0.3743 0.3548
vn -0.6641 0.6952 0.2751
vn -0.8567 0.3743 0.3548
vn -0.3724 0.9152 0.1542
vn -0.3724 -0.9152 0.1542
vn -0.6641 -0.6952 0.2751
vn -0.9239 0.0000 0.3827
vn -0.4031 -0.9152 0.0000
vn -0.9273 -0.3743 0.0000
vn -0.7188 -0.6952 0.0000
vn -1.0000 0.0000 0.0000
vn -0.4031 0.9152 0.0000
vn -0.7188 0.6952 0.0000
vn -0.9273 0.3743 0.0000
vn -0.8567 0.3743 -0.3548
vn -0.9239 0.0000 -0.3827
vn -0.3724 0.9152 -0.1542
vn -0.6641 0.6952 -0.2751
vn -0.3724 -0.9152 -0.1542
vn -0.8567 -0.3743 -0.3548
vn -0.6641 -0.6952 -0.2751
vn -0.2850 -0.9152 -0.2850
vn -0.6557 -0.3743 -0.6557
vn -0.6557 0.3743 -0.6557
vn -0.2850 0.9152 -0.2850
vn -0.5083 -0.6952 -0.5083
vn -0.7071 0.0000 -0.7071
vn -0.5083 0.6952 -0.5083
vn -0.3548 0.3743 -0.8567
vn -0.1542 0.9152 -0.3724
vn -0.1542 -0.9152 -0.3724
vn -0.2751 -0.6952 -0.6641
vn -0.3827 0.0000 -0.9239
vn -0.2751 0.6952 -0.6641
vn -0.3548 -0.3743 -0.8567
s 1
f 111/1/1 110/2/2 5/3/3
f 114/4/4 4/5/5 11/6/6
f 113/7/7 9/8/8 10/9/9
f 112/10/10 7/11/11 8/12/12
f 111/1/1 6/13/13 1/14/14
f 113/7/7 11/6/6 4/5/5
f 112/10/10 9/8/8 3/15/15
f 1/14/14 7/11/11 2/16/16
f 7/11/11 15/17/17 8/12/12
f 5/3/3 13/18/18 6/13/13
f 10/9/9 18/19/19 11/6/6
f 8/12/12 16/20/20 9/8/8
f 6/13/13 14/21/21 7/11/11
f 5/3/3 110/22/2 12/23/22
f 114/24/4 11/6/6 18/19/19
f 9/8/8 17/25/23 10/9/9
f 18/19/19 24/26/24 25/27/25
f 15/17/17 23/28/26 16/20/20
f 13/18/18 21/29/27 14/21/21
f 12/23/22 110/30/2 19/31/28
f 114/32/4 18/19/19 25/27/25
f 16/20/20 24/26/24 17/25/23
f 15/17/17 21/29/27 22/33/29
f 13/18/18 19/31/28 20/34/30
f 20/34/30 28/35/31 21/29/27
f 19/31/28 110/36/2 26/37/32
f 114/38/4 25/27/25 32/39/33
f 23/28/26 31/40/34 24/26/24
f 21/29/27 29/41/35 22/33/29
f 20/34/30 26/37/32 27/42/36
f 25/27/25 31/40/34 32/39/33
f 22/33/29 30/43/37 23/28/26
f 114/44/4 32/39/33 39/45/38
f 30/43/37 38/46/39 31/40/34
f 28/35/31 36/47/40 29/41/35
f 27/42/36 33/48/41 34/49/42
f 31/40/34 39/45/38 32/39/33
f 29/41/35 37/50/43 30/43/37
f 28/35/31 34/49/42 35/51/44
f 26/37/32 110/52/2 33/48/41
f 34/49/42 40/53/45 41/54/46
f 38/46/39 46/55/47 39/45/38
f 36/47/40 44/56/48 37/50/43
f 34/49/42 42/57/49 35/51/44
f 33/48/41 110/58/2 40/53/45
f 114/59/4 39/45/38 46/55/47
f 37/50/43 45/60/50 38/46/39
f 35/51/44 43/61/51 36/47/40
f 46/55/47 52/62/52 53/63/53
f 43/61/51 51/64/54 44/56/48
f 41/54/46 49/65/55 42/57/49
f 40/53/45 110/66/2 47/67/56
f 114/68/4 46/55/47 53/63/53
f 44/56/48 52/62/52 45/60/50
f 43/61/51 49/65/55 50/69/57
f 41/54/46 47/67/56 48/70/58
f 47/67/56 110/71/2 54/72/59
f 114/73/4 53/63/53 60/74/60
f 51/64/54 59/75/61 52/62/52
f 49/65/55 57/76/62 50/69/57
f 48/70/58 54/72/59 55/77/63
f 53/63/53 59/75/61 60/74/60
f 50/69/57 58/78/64 51/64/54
f 48/70/58 56/79/65 49/65/55
f 58/78/64 66/80/66 59/75/61
f 56/79/65 64/81/67 57/76/62
f 55/77/63 61/82/68 62/83/69
f 60/74/60 66/80/66 67/84/70
f 57/76/62 65/85/71 58/78/64
f 55/77/63 63/86/72 56/79/65
f 54/72/59 110/87/2 61/82/68
f 114/88/4 60/74/60 67/84/70
f 66/80/66 74/89/73 67/84/70
f 64/81/67 72/90/74 65/85/71
f 62/83/69 70/91/75 63/86/72
f 61/82/68 110/92/2 68/93/76
f 114/94/4 67/84/70 74/89/73
f 66/80/66 72/90/74 73/95/77
f 64/81/67 70/91/75 71/96/78
f 61/82/68 69/97/79 62/83/69
f 71/96/78 79/98/80 72/90/74
f 70/91/75 76/99/81 77/100/82
f 68/93/76 110/101/2 75/102/83
f 114/103/4 74/89/73 81/104/84
f 72/90/74 80/105/85 73/95/77
f 70/91/75 78/106/86 71/96/78
f 69/97/79 75/102/83 76/99/81
f 73/95/77 81/104/84 74/89/73
f 114/107/4 81/104/84 88/108/87
f 80/105/85 86/109/88 87/110/89
f 77/100/82 85/111/90 78/106/86
f 76/99/81 82/112/91 83/113/92
f 81/104/84 87/110/89 88/108/87
f 78/106/86 86/109/88 79/98/80
f 76/99/81 84/114/93 77/100/82
f 75/102/83 110/115/2 82/112/91
f 85/116/90 91/117/94 92/118/95
f 83/119/92 89/120/96 90/121/97
f 87/122/89 95/123/98 88/124/87
f 85/116/90 93/125/99 86/126/88
f 83/119/92 91/117/94 84/127/93
f 82/128/91 110/129/2 89/120/96
f 114/130/4 88/124/87 95/123/98
f 87/122/89 93/125/99 94/131/100
f 94/131/100 102/132/101 95/123/98
f 92/118/95 100/133/102 93/125/99
f 90/121/97 98/134/103 91/117/94
f 89/120/96 110/135/2 96/136/104
f 114/137/4 95/123/98 102/132/101
f 93/125/99 101/138/105 94/131/100
f 92/118/95 98/134/103 99/139/106
f 90/121/97 96/136/104 97/140/107
f 97/140/107 105/141/108 98/134/103
f 96/136/104 110/142/2 103/143/109
f 114/144/4 102/132/101 109/145/110
f 100/133/102 108/146/111 101/138/105
f 98/134/103 106/147/112 99/139/106
f 97/140/107 103/143/109 104/148/113
f 101/138/105 109/145/110 102/132/101
f 99/139/106 107/149/114 100/133/102
f 114/150/4 109/145/110 4/5/5
f 108/146/111 3/15/15 113/7/7
f 106/147/112 2/16/16 112/10/10
f 103/143/109 1/14/14 104/148/113
f 108/146/111 4/5/5 109/145/110
f 106/147/112 3/15/15 107/149/114
f 105/141/108 1/14/14 2/16/16
f 103/143/109 110/151/2 111/1/1
f 113/7/7 3/15/15 9/8/8
f 112/10/10 2/16/16 7/11/11
f 111/1/1 5/3/3 6/13/13
f 113/7/7 10/9/9 11/6/6
f 112/10/10 8/12/12 9/8/8
f 1/14/14 6/13/13 7/11/11
f 7/11/11 14/21/21 15/17/17
f 5/3/3 12/23/22 13/18/18
f 10/9/9 17/25/23 18/19/19
f 8/12/12 15/17/17 16/20/20
f 6/13/13 13/18/18 14/21/21
f 9/8/8 16/20/20 17/25/23
f 18/19/19 17/25/23 24/26/24
f 15/17/17 22/33/29 23/28/26
f 13/18/18 20/34/30 21/29/27
f 16/20/20 23/28/26 24/26/24
f 15/17/17 14/21/21 21/29/27
f 13/18/18 12/23/22 19/31/28
f 20/34/30 27/42/36 28/35/31
f 23/28/26 30/43/37 31/40/34
f 21/29/27 28/35/31 29/41/35
f 20/34/30 19/31/28 26/37/32
f 25/27/25 24/26/24 31/40/34
f 22/33/29 29/41/35 30/43/37
f 30/43/37 37/50/43 38/46/39
f 28/35/31 35/51/44 36/47/40
f 27/42/36 26/37/32 33/48/41
f 31/40/34 38/46/39 39/45/38
f 29/41/35 36/47/40 37/50/43
f 28/35/31 27/42/36 34/49/42
f 34/49/42 33/48/41 40/53/45
f 38/46/39 45/60/50 46/55/47
f 36/47/40 43/61/51 44/56/48
f 34/49/42 41/54/46 42/57/49
f 37/50/43 44/56/48 45/60/50
f 35/51/44 42/57/49 43/61/51
f 46/55/47 45/60/50 52/62/52
f 43/61/51 50/69/57 51/64/54
f 41/54/46 48/70/58 49/65/55
f 44/56/48 51/64/54 52/62/52
f 43/61/51 42/57/49 49/65/55
f 41/54/46 40/53/45 47/67/56
f 51/64/54 58/78/64 59/75/61
f 49/65/55 56/79/65 57/76/62
f 48/70/58 47/67/56 54/72/59
f 53/63/53 52/62/52 59/75/61
f 50/69/57 57/76/62 58/78/64
f 48/70/58 55/77/63 56/79/65
f 58/78/64 65/85/71 66/80/66
f 56/79/65 63/86/72 64/81/67
f 55/77/63 54/72/59 61/82/68
f 60/74/60 59/75/61 66/80/66
f 57/76/62 64/81/67 65/85/71
f 55/77/63 62/83/69 63/86/72
f 66/80/66 73/95/77 74/89/73
f 64/81/67 71/96/78 72/90/74
f 62/83/69 69/97/79 70/91/75
f 66/80/66 65/85/71 72/90/74
f 64/81/67 63/86/72 70/91/75
f 61/82/68 68/93/76 69/97/79
f 71/96/78 78/106/86 79/98/80
f 70/91/75 69/97/79 76/99/81
f 72/90/74 79/98/80 80/105/85
f 70/91/75 77/100/82 78/106/86
f 69/97/79 68/93/76 75/102/83
f 73/95/77 80/105/85 81/104/84
f 80/105/85 79/98/80 86/109/88
f 77/100/82 84/114/93 85/111/90
f 76/99/81 75/102/83 82/112/91
f 81/104/84 80/105/85 87/110/89
f 78/106/86 85/111/90 86/109/88
f 76/99/81 83/113/92 84/114/93
f 85/116/90 84/127/93 91/117/94
f 83/119/92 82/128/91 89/120/96
f 87/122/89 94/131/100 95/123/98
f 85/116/90 92/118/95 93/125/99
f 83/119/92 90/121/97 91/117/94
f 87/122/89 86/126/88 93/125/99
f 94/131/100 101/138/105 102/132/101
f 92/118/95 99/139/106 100/133/102
f 90/121/97 97/140/107 98/134/103
f 93/125/99 100/133/102 101/138/105
f 92/118/95 91/117/94 98/134/103
f 90/121/97 89/120/96 96/136/104
f 97/140/107 104/148/113 105/141/108
f 100/133/102 107/149/114 108/146/111
f 98/134/103 105/141/108 106/147/112
f 97/140/107 96/136/104 103/143/109
f 101/138/105 108/146/111 109/145/110
f 99/139/106 106/147/112 107/149/114
f 108/146/111 107/149/114 3/15/15
f 106/147/112 105/141/108 2/16/16
f 103/143/109 111/1/1 1/14/14
f 108/146/111 113/7/7 4/5/5
f 106/147/112 112/10/10 3/15/15
f 105/141/108 104/148/113 1/14/14
